<svg xmlns="http://www.w3.org/2000/svg" width="155" height="45" viewBox="0 0 155 45"><g fill="none" fill-rule="evenodd"><rect width="155" height="45" fill="#000" rx="5"/><path fill="#FFF" d="M59.54 34.676h2.556l-5.597-15.5h-2.588l-5.597 15.5h2.47l1.43-4.114h5.907l1.418 4.114zM55.08 21.99h.183l2.245 6.552h-4.683l2.255-6.552zm13.794.795c-1.59 0-2.965.795-3.674 2.127h-.172v-1.934h-2.223v15.49h2.31v-5.564h.182c.612 1.235 1.934 1.966 3.599 1.966 2.954 0 4.834-2.332 4.834-6.048 0-3.717-1.88-6.037-4.856-6.037zm-.655 10.011c-1.934 0-3.148-1.525-3.148-3.964 0-2.449 1.214-3.974 3.159-3.974 1.955 0 3.126 1.493 3.126 3.964 0 2.481-1.171 3.974-3.137 3.974zm12.633-10.011c-1.59 0-2.965.795-3.674 2.127h-.171v-1.934h-2.224v15.49h2.31v-5.564h.182c.612 1.235 1.934 1.966 3.599 1.966 2.954 0 4.834-2.332 4.834-6.048 0-3.717-1.88-6.037-4.856-6.037zm-.655 10.011c-1.934 0-3.147-1.525-3.147-3.964 0-2.449 1.213-3.974 3.158-3.974 1.955 0 3.126 1.493 3.126 3.964 0 2.481-1.171 3.974-3.137 3.974zm10.4-2.288c.172 2.772 2.481 4.544 5.919 4.544 3.674 0 5.972-1.858 5.972-4.823 0-2.331-1.31-3.62-4.49-4.361l-1.708-.42c-2.02-.472-2.836-1.106-2.836-2.212 0-1.397 1.268-2.31 3.17-2.31 1.804 0 3.05.892 3.275 2.32h2.342c-.14-2.61-2.438-4.447-5.586-4.447-3.383 0-5.64 1.837-5.64 4.598 0 2.277 1.279 3.63 4.083 4.286l1.998.483c2.052.484 2.954 1.193 2.954 2.374 0 1.375-1.418 2.374-3.352 2.374-2.073 0-3.512-.934-3.717-2.406h-2.384zm13.88-10.366v2.89h-1.924v1.944h1.923v6.606c0 2.256 1.02 3.159 3.588 3.159.451 0 .87-.054 1.236-.119V32.7c-.323.032-.505.053-.86.053-1.15 0-1.654-.537-1.654-1.761v-6.016h2.621v-1.944h-2.621v-2.89h-2.31zm10.656 12.708c-2.009 0-3.137-1.472-3.137-4.028 0-2.535 1.128-4.018 3.137-4.018 1.998 0 3.137 1.483 3.137 4.018 0 2.546-1.139 4.028-3.137 4.028zm0 2.052c3.416 0 5.51-2.288 5.51-6.08 0-3.77-2.105-6.07-5.51-6.07-3.416 0-5.521 2.3-5.521 6.07 0 3.792 2.094 6.08 5.521 6.08zm6.564-.226h2.31V27.77c0-1.644 1.235-2.75 2.975-2.75.387 0 1.096.075 1.279.14v-2.28c-.247-.064-.688-.096-1.02-.096-1.526 0-2.815.837-3.148 1.987h-.172v-1.794h-2.224v11.698zm11.764-9.958c1.708 0 2.825 1.193 2.879 3.03h-5.909c.13-1.827 1.322-3.03 3.03-3.03zm2.868 6.8c-.43.913-1.386 1.418-2.782 1.418-1.848 0-3.04-1.3-3.116-3.352v-.129h8.261v-.805c0-3.674-1.966-5.898-5.22-5.898-3.298 0-5.393 2.374-5.393 6.113 0 3.738 2.052 6.037 5.403 6.037 2.675 0 4.544-1.29 5.07-3.384h-2.223zM50.478 7.076v7.381h2.665c2.2 0 3.474-1.355 3.474-3.714 0-2.322-1.284-3.667-3.474-3.667h-2.665zm1.146 1.043h1.391c1.53 0 2.435.972 2.435 2.64 0 1.693-.89 2.655-2.435 2.655h-1.39V8.119zm9.025 5.469c-.957 0-1.494-.701-1.494-1.919 0-1.207.537-1.913 1.494-1.913.951 0 1.493.706 1.493 1.913 0 1.213-.542 1.919-1.493 1.919zm0 .977c1.626 0 2.624-1.09 2.624-2.896 0-1.795-1.003-2.89-2.624-2.89-1.627 0-2.63 1.095-2.63 2.89 0 1.806.998 2.896 2.63 2.896zm11.244-5.678h-1.1l-.992 4.25h-.087l-1.146-4.25h-1.054l-1.145 4.25h-.082l-.998-4.25h-1.115l1.535 5.57h1.13l1.146-4.102h.087l1.15 4.102h1.142l1.53-5.57zm1.398 5.57h1.1V11.2c0-.87.542-1.412 1.427-1.412.818 0 1.217.445 1.217 1.34v3.33h1.1v-3.606c0-1.325-.701-2.072-1.944-2.072-.839 0-1.489.374-1.76.993h-.082v-.885h-1.058v5.57zm6.702 0h1.1V6.713h-1.1v7.744zm5.362-.87c-.957 0-1.494-.7-1.494-1.918 0-1.207.537-1.913 1.494-1.913.951 0 1.493.706 1.493 1.913 0 1.213-.542 1.919-1.493 1.919zm0 .978c1.626 0 2.624-1.09 2.624-2.896 0-1.795-1.003-2.89-2.624-2.89-1.627 0-2.63 1.095-2.63 2.89 0 1.806.998 2.896 2.63 2.896zm6.026-.942c-.598 0-1.033-.291-1.033-.793 0-.49.348-.751 1.115-.803l1.361-.087v.466c0 .69-.614 1.217-1.443 1.217zm-.28.926c.73 0 1.34-.317 1.672-.875h.087v.783h1.059v-3.806c0-1.176-.788-1.872-2.185-1.872-1.263 0-2.163.614-2.276 1.57h1.064c.123-.393.547-.618 1.161-.618.752 0 1.141.332 1.141.92v.481l-1.51.087c-1.324.082-2.07.66-2.07 1.663 0 1.018.782 1.667 1.856 1.667zm6.68 0c.768 0 1.418-.363 1.75-.972h.087v.88h1.054V6.713h-1.1v3.059h-.082c-.302-.614-.946-.978-1.708-.978-1.407 0-2.312 1.116-2.312 2.875 0 1.765.895 2.88 2.312 2.88zm.313-4.767c.92 0 1.499.731 1.499 1.892 0 1.167-.573 1.888-1.5 1.888-.93 0-1.488-.711-1.488-1.893 0-1.171.563-1.887 1.489-1.887zm9.966 3.806c-.956 0-1.493-.701-1.493-1.919 0-1.207.537-1.913 1.493-1.913.952 0 1.494.706 1.494 1.913 0 1.213-.542 1.919-1.494 1.919zm0 .977c1.627 0 2.625-1.09 2.625-2.896 0-1.795-1.003-2.89-2.625-2.89-1.626 0-2.629 1.095-2.629 2.89 0 1.806.998 2.896 2.63 2.896zm4.206-.108h1.1V11.2c0-.87.542-1.412 1.427-1.412.819 0 1.218.445 1.218 1.34v3.33h1.1v-3.606c0-1.325-.701-2.072-1.944-2.072-.84 0-1.489.374-1.76.993h-.082v-.885h-1.059v5.57zm10.166-6.92v1.375h-.915v.926h.915v3.146c0 1.074.486 1.504 1.709 1.504.215 0 .414-.026.588-.056v-.916c-.153.015-.24.025-.409.025-.547 0-.788-.255-.788-.838V9.838h1.248v-.926h-1.248V7.536h-1.1zm3.915 6.92h1.1v-3.253c0-.844.557-1.412 1.457-1.412.83 0 1.243.45 1.243 1.34v3.325h1.1v-3.596c0-1.325-.716-2.077-1.97-2.077-.838 0-1.483.374-1.754.998h-.087v-3.07h-1.09v7.745zm8.999-4.742c.813 0 1.345.568 1.37 1.443h-2.813c.061-.87.63-1.443 1.443-1.443zm1.365 3.238c-.204.435-.66.675-1.324.675-.88 0-1.448-.618-1.484-1.596v-.06h3.934v-.385c0-1.749-.936-2.808-2.486-2.808-1.57 0-2.568 1.13-2.568 2.91 0 1.78.977 2.876 2.573 2.876 1.274 0 2.164-.614 2.414-1.612h-1.059zM35.026 22.791c-.034-3.746 3.068-5.57 3.21-5.654-1.757-2.561-4.48-2.911-5.436-2.94-2.287-.24-4.505 1.37-5.67 1.37-1.188 0-2.982-1.346-4.915-1.306-2.488.038-4.815 1.478-6.092 3.715-2.634 4.56-.67 11.263 1.855 14.95 1.262 1.806 2.737 3.82 4.668 3.75 1.89-.077 2.595-1.205 4.875-1.205 2.259 0 2.921 1.205 4.89 1.158 2.028-.03 3.305-1.812 4.523-3.635 1.459-2.067 2.045-4.107 2.068-4.212-.046-.015-3.936-1.5-3.976-5.99m-3.72-11.019c1.016-1.27 1.711-3 1.518-4.754-1.47.065-3.31 1.018-4.368 2.26-.937 1.095-1.774 2.89-1.558 4.578 1.652.124 3.348-.833 4.408-2.084"/></g></svg>