<svg xmlns="http://www.w3.org/2000/svg" width="99" height="122" viewBox="0 0 99 122"><g fill="none" fill-rule="evenodd"><path stroke="#88D9E7" stroke-linecap="round" stroke-linejoin="round" stroke-width=".5" d="M50.55 80.662c.23.576.46 1.152.693 1.726.264.65.687 1.134 1.381 1.353.45.142.812.38 1.016.855.163.38.455.678.83.9.472.281.948.571 1.165 1.135.05.134.222.222.345.337l3.254-1.088c.015.37.054.637.03.898-.047.536.136.992.398 1.44.395.676.799 1.351 1.146 2.053.158.318.235.694.267 1.051.077.848.118 1.7.146 2.552a1.73 1.73 0 0 1-.13.737c-.208.47-.2.935-.086 1.417.157.67.142.71-.408 1.087-.844.579-1.616 1.212-2.058 2.183-.408.896-1.215 1.212-2.13 1.318-.114.013-.231 0-.346.01-.86.07-1.047.316-1.099 1.165-.053.882.243 1.57.896 2.143.319.28.611.598.768 1.097-.575-.084-.843-.463-1.136-.802-.195-.226-.346-.504-.576-.683-.284-.222-.621-.496-.95-.516-.742-.048-1.122-.508-1.415-1.058-.197-.37-.45-.586-.838-.6-.683-.026-1.368-.007-2.086-.007l-.106 1.016-1.071.054c-.092-.27-.168-.482-.236-.698-.165-.526-.525-.846-1.07-.809-1.012.07-1.826-.3-2.594-.925-.344-.28-.808-.414-1.275-.641-.185-.863-.818-1.386-1.687-1.65-.35-.107-.468-.308-.458-.66.011-.418.048-.815.235-1.207.163-.344.235-.731.354-1.118-.185-.098-.297-.174-.42-.218-.232-.085-.32-.249-.302-.482.058-.743-.24-1.39-.498-2.06-.162-.418-.19-.887-.29-1.383l-.88-.147c.264-.3.559-.51.666-.791.106-.28.023-.63.023-.994.4-.056.782-.02 1.056-.175.268-.153.425-.5.723-.88.275-.134.68.05 1.065.151.486.128.803.015 1.01-.437.027-.06.09-.102.18-.197.503.66 1.221.444 1.885.452.41.006.438-.353.513-.633.096-.354.117-.741.576-.921.1.158.193.335.315.489.297.377.73.339.942-.09.2-.405.136-.769-.132-1.158-.31-.451-.558-.952-.778-1.456-.254-.581-.184-1.159.108-1.733.663-1.298 1.682-1.773 3.077-1.394l-.008-.008z"/><path stroke="#88D9E7" stroke-linecap="round" stroke-linejoin="round" stroke-width=".5" d="M49.674 102.691l.112-1.077c.625 0 1.217-.014 1.808.006.269.01.457.176.583.427.352.7.881 1.11 1.689 1.268.404.08.76.477 1.104.77.168.144.251.384.392.567.306.399.678.687 1.217.685.132 0 .265.04.415.066.068.525.129 1.023.197 1.52.105.76.41 1.123 1.134 1.288.38.086.772.116 1.158.17.137.019.277.023.41.053.832.19.916.362.466 1.102-.314.516-.314 1.052-.19 1.601.092.404.212.804.362 1.19.165.424.068.781-.228 1.078-.256.259-.54.505-.847.697-1.099.684-2.166 1.405-3.063 2.351-.722.761-1.645 1.072-2.652 1.196-.48.059-.968.066-1.436.171-.348.079-.713.219-.995.431a93.37 93.37 0 0 0-3.193 2.531c-.256.212-.451.518-.621.811-.145.25-.304.383-.598.364-.872-.055-1.747-.078-2.617-.162-.229-.022-.447-.21-.66-.338-.235-.14-.448-.319-.69-.444-.393-.204-.527-.466-.366-.886.246-.644.51-1.281.773-1.919.275-.665.7-1.153 1.413-1.418.773-.287 1.22-.955 1.586-1.663.54-1.05.566-2.184.448-3.314-.112-1.08-.942-1.752-2.026-1.78a24.703 24.703 0 0 1-1.855-.122c-.582-.059-1.027-.382-1.389-.827-.843-1.037-2.077-.999-2.884.088-.067.09-.142.176-.238.295-.238-.11-.473-.2-.69-.322-.441-.247-.86-.26-1.307.005-.333.198-.697.346-1.138.289-.067-.248-.137-.488-.197-.73-.16-.653-.352-.823-1.052-.866-.363-.023-.728-.004-1.178-.004.284-.852.995-.402 1.463-.667.111-.35.067-.727-.03-1.111-.23-.92.382-1.521.862-2.154.079-.104.404-.1.578-.038.781.272 1.553.573 2.32.883.447.181.876.41 1.32.6 1.532.65 2.687.127 3.713-1.108.5-.602.85-1.26.723-2.085-.017-.11.008-.23.023-.343.005-.042.038-.08.087-.176.167-.015.366-.04.567-.047.41-.014.794-.041 1.203-.194.478-.18 1.034-.161 1.559-.194.107-.007.257.114.33.217.186.257.409.518.488.813.1.379.303.472.644.459.316-.013.633-.003.993-.003zm32.289-43.207h1.864c.076.707.148 1.342.21 1.977.03.306-.056.57-.22.846-.333.558-.597 1.153-.382 1.883-.644.502-1.36.587-2.141.48-.75-.104-1.507-.151-2.26-.228-.924-.094-1.346.546-1.347 1.36 0 .34.065.679.1 1.03-.536.248-1.017.028-1.487-.12-.122-.038-.21-.267-.264-.425-.11-.325-.149-.678-.286-.989-.27-.612-.824-.771-1.35-.358-.334.264-.583.638-.893.987l-1.443-.451c.068-.014.154-.035.241-.05.464-.077.533-.11.525-.554-.012-.683.167-1.319.354-1.962.215-.742-.003-1.048-.77-1.088-.507-.026-1.02-.052-1.52.009-.297.036-.666.166-.843.383-.815 1-1.932 1.171-3.098 1.265a5.176 5.176 0 0 0-.814.127c-1.485.365-1.62 1.157-1.417 2.3.092.519.246 1.025.296 1.594-.09-.102-.208-.19-.267-.308-.454-.906-1.953-1.125-2.837-.332-.416.374-.793.782-.957 1.33-.088.291-.249.414-.546.412-2.098-.009-4.196-.012-6.294-.02-.042 0-.083-.033-.171-.07l-.14-.685-.952-.103c-.056-.135-.11-.26-.16-.386-.265-.676-.698-.872-1.35-.564-.288.136-.541.347-.805.53-.128.089-.245.193-.435.345-.148-.9-.656-1.553-1.068-2.259-.27-.465-.581-.938-.496-1.557l.675-.129c.173-.337-.01-.84.44-.973.342-.1.719-.084 1.111-.123.104-.526.213-.984-.373-1.33-.355-.208-.3-.528.058-.769.325-.217.685-.251 1.108-.159.065.193.146.403.206.62.1.361.34.594.666.75.46.219 2.113.411 2.746.311l.176-.8h.404c.485-.002.873-.116 1.093-.633.622-1.463 1.912-2.182 3.263-2.804.3-.139.578-.233.712-.581.323-.838.682-1.661 1.015-2.494.068-.169.087-.356.147-.613.273-.011.563-.05.85-.03.374.026.521.193.573.566.097.706.205 1.41.286 2.117.062.547.09 1.098.136 1.647.011.134.032.268.051.426.45.128.875.017 1.187-.219.494-.373.985-.449 1.554-.287.126.036.27.005.422.005.354-.738.291-1.651 1.043-2.294.018.311.018.534.044.754.056.463.378.756.841.738.597-.023 1.088-.26 1.3-.853.156-.43.229-.89.365-1.33.086-.276.151-.673.35-.776.37-.19.831-.27 1.256-.276.37-.005.846.908.656 1.212-.095.153-.315.262-.5.318-.214.064-.452.05-.74.074-.12.599-.06 1.187-.048 1.76.772.266 1.229.103 1.473-.552.13-.35.327-.527.697-.556.334-.027.665-.092 1.012-.143.187.512.114.912-.205 1.219-.347.332-.448.724-.47 1.19.696.266 1.258-.08 1.863-.366l.063 1.054c.453.213.806.116 1.071-.235.248-.33.498-.67.666-1.04.104-.23.11-.536.07-.793-.129-.813.052-1.5.67-2.07.737-.683 1.544-1.221 2.53-1.49.483-.132.938-.37 1.426-.57l.954.768c.275.221.427.498.297.85-.118.318-.229.603-.674.677-.752.126-1.088.603-1.092 1.357-.005.801-.001 1.603-.001 2.526z"/><path stroke="#88D9E7" stroke-linecap="round" stroke-linejoin="round" stroke-width=".5" d="M29.46 113.247l-2.948-2.134c.055-.354.113-.713.166-1.073.026-.182.059-.365.063-.548.013-.558-.15-.788-.697-.813-.595-.028-1.194.028-1.791.048-.022.001-.044.017-.067.018-.393.01-.852.254-1.129-.207-.228-.38-.022-1.226.318-1.545.183-.171.42-.306.548-.51.26-.421.143-.884.068-1.344-.077-.475-.273-.784-.744-.976-.557-.228-.714-1.113-.364-1.752.066-.12.165-.22.247-.332.344-.468.458-.978.382-1.564a36.192 36.192 0 0 1-.219-2.474c-.015-.245.03-.511.116-.742.564-1.517 1.22-2.989 2.216-4.281.152-.198.332-.374.547-.612.307.212.586.4.86.594.226.16.46.312.666.494 1.055.927 2.258.894 3.517.579a9.66 9.66 0 0 1 1.346-.25c.304-.03.476-.15.527-.438.08-.45.15-.903.228-1.386.578.025.641.55.862.96.864-.038 1.687-.198 2.434-.64.536-.316 1.049-.67 1.579-.996a3.469 3.469 0 0 1 1.665-.517c.252.787.493 1.498.706 2.218.084.284.16.59.143.881-.032.51.111.856.747.966-.608.9-.668 1.847-.555 2.785.538.34 1.053.67 1.575.99.271.167.455.373.496.705.03.253.19.37.452.443.297.084.567.27.84.427.356.205.703.424 1.076.651.012.31-.164.457-.502.451-.365-.006-.73 0-1.165 0-.019.358-.007.653-.057.937-.058.333-.1.701-.271.978-.49.79-1.151 1.434-1.927 1.952-.317.212-.656.32-1.044.164-.617-.25-1.257-.447-1.858-.73-.856-.403-1.695-.83-2.631-1.027-.766-.16-.957-.1-1.383.557-.163.25-.297.52-.43.787-.224.449-.33.905-.1 1.395.074.157.08.347.128.57-.238.066-.427.138-.624.17-.37.058-.665.226-.985.428-.368.23-.856.32-1.302.365-.737.076-1.364.611-1.382 1.35-.017.69.051 1.381.052 2.072.001.636-.003 1.28-.396 1.956zM5.695 42.727c.912-.172 1.346-.78 1.557-1.639.25-1.023.548-2.034.822-3.04.567-.072 1.031-.18 1.488.089.26.152.552.175.74-.107.451-.674 1.082-.746 1.796-.59.088.02.178.033.335.062.022.218.02.445.07.66.114.5.25 1.008.82 1.187.548.172 1.085-.064 1.496-.618.367-.496.466-.762.644-1.725.036-.026.073-.076.109-.075.727.015 1.08-.437 1.279-1.051.169-.526.293-1.065.449-1.595.094-.32-.118-.52-.26-.751-.129-.212-.39-.456-.188-.673.159-.171.483-.255.736-.26.866-.019 1.446.432 1.657 1.272.095.376.118.77.165 1.157.055.456.072.92.158 1.369.15.78.59 1.031 1.362.819.197-.054.393-.11.66-.186.248 1.164 1.008 1.732 2.194 1.812.14.997-.369 1.925-.179 2.924.498.116.874.374.802 1.049.363.056.695.11 1.028.159.921.137 1.823.321 2.464 1.089.084.1.136.227.207.35-.331.358-.772.37-1.16.448-1.007.199-1.21.617-1.297 1.587-.039.435-.016.877-.002 1.314.016.485.026.484.541.62.058.014.108.054.274.14-.27.066-.435.108-.6.146-.633.146-1.253.307-1.709.829-.19.217-.31.432-.323.734-.025.547-.218.72-.75.787-.648.082-1.158-.234-1.656-.574-.38-.26-.734-.559-1.12-.809-.268-.174-.567-.302-.858-.437-.46-.213-.885-.157-1.296.15-.7.523-1.474.837-2.366.839-.523.001-.89.353-1.252.669-.33.287-.618.62-.93.928-.147.146-.294.298-.463.415-.85.592-1.371.478-1.916-.404-.097-.157-.2-.312-.282-.476-.36-.723-.783-1.372-1.769-1.442 0-.369-.01-.686.002-1.003.024-.649-.262-1.124-.728-1.565-.884-.838-1.73-1.717-2.574-2.596-.43-.449-.49-1.024-.432-1.618l.255-.37zm80.175 3.755c-.06.302-.142.566-.162.834-.048.693.338 1.138 1.028 1.207.205.02.415.019.622.006.763-.044 1.47.083 2.023.65.661-.104 1.028-.632 1.524-.95a3.47 3.47 0 0 0 .646-.516c.763-.804 1.77-.902 2.78-.987.253-.021.508-.004.761-.004.94.001 1.574.47 1.911 1.322.297.75.56 1.513.8 2.282a.726.726 0 0 1-.095.576c-.336.432-.725.823-1.092 1.23-.245.272-.529.517-.722.821-.203.32-.257.69.028 1.028.21.248.223.521-.021.74-.44.397-.517.903-.502 1.45.005.184.007.369 0 .553-.018.513.167.872.67 1.089.374.162.704.427 1.057.64.471.285.933.59 1.423.836.246.124.353.262.323.53-.478.059-.952.125-1.428.174-.667.068-.935.52-1.074 1.097-.074.309-.13.622-.21 1.013-1.096.09-2.166.196-3.238.261-1.425.086-2.835.259-4.221.608-.09.023-.175.057-.263.087-1.5.513-1.927 1.246-1.612 2.803.03.149.144.28.213.422.098.2.19.404.282.601l-1.175 1.082c-.074-.007-.127.004-.161-.017-.789-.493-.812-.57-.46-1.443.07-.17.147-.34.204-.514.23-.694.023-1.222-.623-1.555a3.749 3.749 0 0 0-.645-.242c-.615-.184-.838-.695-.536-1.266.108-.204.271-.387.335-.601.123-.414.252-.82.127-1.284-.125-.461-.142-.953-.195-1.433-.052-.474-.107-.54-.6-.557-.409-.013-.819-.003-1.205-.003 0-.74-.006-1.402.002-2.064.008-.601.25-.987.847-1.078.647-.099.846-.51.917-1.037.067-.505-.061-.962-.542-1.25-.099-.059-.187-.135-.275-.21-.547-.465-1.107-.576-1.76-.17-.323.2-.72.278-1.153.438-.318-.931-.392-1.817-.087-2.673.249-.701.33-1.379.182-2.097-.12-.585.305-1.405.85-1.569.148-.045.36.026.513.105 1.079.556 1.739.47 2.585-.396.39-.4.814-.649 1.404-.569zM81.142 28.57c-.346 0-.568.019-.787-.004-.529-.055-.952.154-1.294.525-.28.304-.56.62-.768.974-.303.516-.211.945.261 1.354.33.285.685.55 1.057.778.61.374.91.958.948 1.609.043.728.213 1.352.74 1.864.046.044.058.123.081.175l-.903 1.5c-.274-.096-.61-.228-.955-.332-1.255-.376-2.151.062-2.652 1.282-.026.063-.06.121-.104.21-.93.13-1.824.064-2.623-.517-.02-.014-.037-.03-.057-.04-1.21-.689-1.052-.576-1.876.186-.115.107-.237.208-.41.36-.032-.14-.08-.223-.063-.292.278-1.224.301-2.535 1.217-3.544.133-.147.227-.36.265-.558.062-.33.19-.548.545-.617.234-.045.33-.231.313-.47-.041-.55-.084-1.1-.124-1.65-.025-.323-.09-.589-.514-.58-.503.009-.77.177-.86.616-.037.177-.047.36-.071.561l-1.701.605c-.134-.864-.561-1.55-1.24-2.033.304-.766.896-1.474 1.475-1.798-.002-.802-.017-.82-.91-1.041l-.675-2.276c-.065-.22-.013-.396.237-.564l.2.661c.471.089.962.198 1.459.268.395.056.78-.008 1.128-.233.495-.32 1.018-.37 1.586-.187.316.101.66.119 1.098.193.007-.6.036-1.1.012-1.597-.025-.525.063-.954.601-1.194.185-.082.333-.245.473-.352-.048-.215-.055-.333-.1-.434-.513-1.146-.52-2.373-.55-3.591a1.701 1.701 0 0 1 .207-.853c.472-.818.992-1.609 1.494-2.41a2.995 2.995 0 0 1 1.644-1.297c.585-.197 1.13-.515 1.694-.774.349-.16.552-.394.501-.807-.015-.127.04-.263.075-.472l1.481.441-.45.363a2.677 2.677 0 0 0-.827 1.165c-.335.87.195 1.83 1.273 1.913.453.035.913-.033 1.425-.057.42.496.69 1.135.877 1.798.2.707.278 1.45.482 2.155.205.708-.02 1.368-.101 2.047-.014.114-.057.224-.07.338-.086.738.063.984.76 1.27.146.061.29.127.451.197v.727c-.076.048-.116.095-.153.094-.7-.035-1.298.179-1.812.672-.195.186-.462.305-.711.423-.569.27-1.142.334-1.722.008a1.755 1.755 0 0 0-.578-.212c-.67-.1-1.239.228-1.489.862-.109.277-.223.577-.22.865.003.25.116.541.275.736.27.33.616.598 1.035.99z"/><path stroke="#88D9E7" stroke-linecap="round" stroke-linejoin="round" stroke-width=".5" d="M66.246 17.962c-.57-.095-1.123-.255-1.74-.095-.64.166-1.313.209-1.973.29-.221.027-.448.004-.789.004.378-.832.184-1.562.053-2.31-.165-.941.119-1.831.534-2.67.287-.577.592-1.15.945-1.687.25-.383.345-.736.157-1.162a3.99 3.99 0 0 1-.242-.721c-.09-.4.078-.582.47-.517.316.053.627.144.943.204.34.064.469.255.401.591-.027.135-.05.272-.061.41-.023.297.104.465.41.532.85.186 1.67.269 2.464-.244a1.713 1.713 0 0 1 1.185-.258c.305.04.642-.174 1.008-.288.209.388.426.72 1.009.688.526-.028.808-.212.942-.698l1.294.121c0-1.598.017-3.114-.013-4.629-.007-.349-.18-.694-.29-1.09.47-.537 1.119-.644 1.89-.442.022.13.051.261.064.394.051.538.358.87.826 1.106.634.32 1.238.7 1.884.99.365.164.788.197 1.265.307.173.91.597 1.723 1.632 2.029.069.709.134 1.392.202 2.075.037.366.075.731.12 1.096.059.495.013.569-.45.803-.264.134-.533.269-.771.443-.446.325-.917.22-1.412.083-.44.628-.865 1.227-1.28 1.833-.35.513-.688 1.035-1.033 1.552a3.394 3.394 0 0 0-.583 1.884c-.02 1.118.03 2.216.474 3.259.14.326.055.553-.265.657-.541.176-.662.549-.622 1.071.039.522.008 1.05.008 1.646-.426-.074-.76-.117-1.089-.191-.513-.117-.993-.088-1.472.166-.403.214-.831.41-1.344.255-.182-.484-.047-.995-.092-1.491-.037-.411-.053-.827-.133-1.23-.03-.144-.202-.341-.34-.368-.459-.092-.711-.405-.933-.76-.207-.332-.39-.679-.579-1.022-.248-.453-.365-.527-.882-.463-.5.062-.998.148-1.497.225-.456.07-.606-.033-.608-.492 0-.218.067-.447.145-.655.123-.33.206-.784.168-1.23zm-4.602 76.095c-.1-.913-.23-1.776-.282-2.643-.051-.88-.275-1.674-.832-2.369-.671-.837-1.052-1.78-.99-2.874.008-.133-.025-.27-.038-.394-.664-.173-2.016.174-3.48.88-.019-.014-.05-.024-.055-.041-.195-.804-.813-1.173-1.496-1.498-.43-.205-.556-.438-.44-.899a61.75 61.75 0 0 1 .86-3.06.959.959 0 0 1 .431-.503c.296-.16.365-.37.355-.675-.021-.67-.017-1.305-.585-1.84-.438-.412-.22-1.141.335-1.444.202-.11.407-.236.627-.287.362-.083.612-.32.661-.635.127-.817.767-.937 1.398-1.177.024.18.063.315.056.448-.02.381.058.689.343.996.256.277.386.677.546 1.034.13.291.324.416.645.406a41.07 41.07 0 0 1 1.73-.008c.68.008 1.257.232 1.666.813.284.406.673.611 1.185.575.756-.053 1.514-.086 2.27-.136a1 1 0 0 0 .4-.095c.683-.37 1.422-.334 2.159-.324.785.011 1.205.668.871 1.405a1.34 1.34 0 0 1-.42.535c-.429.299-.892.55-1.37.837-.417-.426-.775-.815-1.16-1.177-.804-.756-1.714-.672-2.36.22-.255.355-.472.737-.703 1.11-.121.196-.2.43-.356.59-.837.87-.642 1.896-.486 2.927.077.512.363.837.817 1.03.975.415 1.965.797 2.928 1.237.581.267 1.142.591 1.68.938.562.363 1.093.765 1.769.907.49.102.911.009 1.262-.352.286-.294.564-.595.897-.948.164.218.313.386.427.575.638 1.058 1.596 1.775 2.603 2.43.695.452 1.508.533 2.311.619.091.01.185.008.277.003 1.164-.058 1.917.607 1.606 2.014-.074.336-.16.675-.29.993-.24.586-.668.895-1.335.906-.732.011-1.351-.165-1.872-.711-.154-.162-.437-.27-.666-.28a19.6 19.6 0 0 0-2.212.021c-.273.02-.556.192-.793.355-.63.433-.884.428-1.435-.11-.132-.129-.266-.256-.394-.39-.305-.319-.67-.458-1.116-.447-.968.023-1.937.019-2.905.03-.282.003-.534-.032-.77-.231-.545-.461-1.674-.532-2.156-.03-.575.601-1.259.695-2.118.744zm-13.706-7.521c-.251-.242-.45-.419-.63-.612-.371-.395-.75-.338-.924.157-.099.282-.172.573-.249.862-.07.263-.238.38-.504.373-.456-.013-.9.015-1.263-.39-.276-.306-.68-.155-1.057-.11l-.185.706c-.39-.069-.745-.146-1.103-.19-.366-.046-.655.004-.795.453-.126.41-.6.658-.98.613-.432-.05-.746-.29-.844-.71-.22-.942-.755-1.721-1.208-2.548-.43-.785-1-1.396-1.852-1.665-.604-.191-.765-.599-.753-1.15.014-.643.039-1.285.062-2.03a17.737 17.737 0 0 0-2.604-.909c.335-.665.717-1.295.27-2.01.56-.297 1.231.007 1.539-.542.172-.307.21-.69.314-1.06l-2.144-.373c.2-1.516.473-2.893 1.46-4.038.526-.611.894-1.337 1.153-2.114.145-.435.338-.584.876-.832.113.3.228.6.337.9.364 1.005 1.13 1.666 1.951 2.273.565.418.988.951 1.365 1.586.725 0 1.46.007 2.194-.004.317-.004.496-.183.565-.5.144-.675.27-1.356.474-2.013.189-.61-.001-1.012-.486-1.369-.402-.295-.827-.595-.92-1.168.378-.324.771-.227 1.169-.086l1.968.697c.01.344.035.751.029 1.159-.01.592.086 1.113.534 1.579.231.24.307.658.39 1.011.271 1.165.51 2.336.772 3.503.04.178.078.397.198.508.475.436.517 1.034.571 1.59.08.811.303 1.528.863 2.129.044.047.06.12.108.221-.098.082-.186.188-.298.245-.975.488-1.312 1.38-1.46 2.366-.038.25.064.546.173.788.256.568.558 1.114.837 1.67.143.288.303.577.087 1.034z"/><path stroke="#88D9E7" stroke-linecap="round" stroke-linejoin="round" stroke-width=".5" d="M63.949.55c.618-.199 1.154-.17 1.545.143.554.446 1.096.354 1.615.1.656-.323 1.26-.247 1.846.077.312.172.61.42.827.7.444.574.852.668 1.46.261.165-.11.35-.228.54-.261.48-.084.582-.005.77.461.026.064.032.142.072.194.455.59.424 1.161.018 1.78-.113.172-.082.509 0 .726.201.537.203 1.083.194 1.637-.01.6-.01 1.201-.013 1.801-.002.522 0 1.044 0 1.557-1.086-.204-1.086-.204-1.448.584-.603.13-.603.13-.868-.324-.211-.36-.381-.455-.788-.352-.887.225-1.828.276-2.623.804-.057.037-.125.059-.19.083-1.026.377-1.367.174-1.541-.916-.073-.453-.205-.617-.635-.703-.36-.072-.725-.146-1.09-.152-.787-.013-1.06.348-.84 1.094.103.352.263.687.418 1.083-.204.179-.456.344-.637.567-.518.638-.88 1.363-.954 2.189-.08.87-.084 1.747-.153 2.618-.073.916-.17 1.83-.292 2.74-.022.164-.211.305-.416.58l-.178-.832-.96-.12c-.142-.469.062-1.028-.357-1.382-.473-.4-.94-.833-1.479-1.12-.31-.166-.76-.072-1.167-.096l-.439 1.013c-.206-.243-.434-.401-.502-.611-.192-.59-.547-.947-1.193-.976l-.127-1.06-4.491.774c.009-.971-.1-1.862.137-2.745.252-.942.597-1.247 1.56-1.211.893.033 1.783.15 2.675.227.202.017.405.021.625.032.2-.558.106-1.086.086-1.607a10.545 10.545 0 0 0-.11-1.096c-.033-.224-.07-.46-.17-.66-.513-1.035-.337-2.012.546-2.688.306-.233.433-.513.463-.878.05-.59.06-.585.613-.68.157-.028.347-.042.456-.137.413-.363.848-.268 1.302-.13.44.132.903.211 1.323.39.48.206.963.446 1.377.761.798.609 1.499.635 2.329.109.417-.265.917-.436 1.403-.547.47-.107.677-.374.717-.798.036-.39.053-.789.002-1.174-.028-.204-.205-.396-.336-.578-.288-.405-.588-.8-.922-1.25zM49.45 40.905c-.363-.698-.288-1.425.13-2.015.59-.832.43-1.71.372-2.595-.025-.386-.122-.767-.188-1.16.427-.372.926-.543 1.427-.704.306-.098.591-.02.851.163.33.232.69.365 1.132.33.068-.226.137-.475.484-.353.63.22 1.266.421 1.898.633.677.227 1.349.466 2.028.682.506.162.9.428 1.14.927.214.447.783.682 1.281.582.225-.046.448-.1.674-.144.04-.008.085.022.156.042.098.456.201.923.3 1.391.014.066.035.15.008.202-.339.679-.167 1.407-.214 2.113-.05.741-.36 1.327-1.042 1.674-.367.187-.742.358-1.136.547-.012.183-.022.365-.035.546-.023.313.07.544.412.614a.72.72 0 0 1 .19.081c.422.232.508.482.18.815-.302.307-.388.671-.47 1.05-.095.45-.144.91-.253 1.355-.068.277.014.436.239.575.488.301.97.613 1.478.936-.04.238-.069.486-.122.73-.089.41-.347.671-.765.654-.765-.033-1.443.227-2.133.492-.472.181-.961.322-1.452.444-.545.136-1.425-.383-1.543-.901-.025-.11.035-.279.115-.367.136-.15.311-.271.484-.382.295-.19.345-.47.32-.786-.023-.296-.266-.342-.481-.42-.887-.325-1.767-.67-2.663-.965-.359-.118-.752-.128-1.174-.195-.086.579-.447.788-.876.824-.948.08-1.74.415-2.283 1.284-.262-.126-.488-.227-.707-.342-.66-.35-1.35-.42-2.077-.262a3.917 3.917 0 0 1-.822.079c-.621 0-.755-.171-.58-.753.105-.352.232-.7.382-1.036.324-.726.53-1.47.493-2.275a13.52 13.52 0 0 1 .001-1.453c.016-.262.142-.514.181-.777.05-.337.06-.68.095-1.02.04-.38-.193-.58-.463-.785-.398-.301-.653-.702-.675-1.198-.364-.13-.747-.188-1.023-.392-.211-.156-.286-.495-.422-.753l.087-.12c.254.066.528.093.759.207.558.273 1.094.591 1.643.884.443.237.892.463 1.389.72-.042.59-.194 1.259.208 1.964.662 0 1.37.012 2.077-.01.135-.005.29-.123.394-.23.272-.275.521-.573.817-.904l-.233-.252.007.01zM32.424 78.872c-.015-.207-.008-.418-.051-.619-.11-.51-.219-.595-.736-.647-.137-.013-.278-.014-.41-.05-.26-.071-.369-.24-.31-.521.234-1.101-.412-1.88-1.02-2.65-.14-.179-.433-.26-.672-.33-.315-.092-.587-.001-.766.307-.185.32-.371.64-.581.941-.496.714-1.006 1.417-1.55 2.18-.204-.217-.324-.378-.476-.499-.225-.177-.217-.385-.138-.619.494-1.461.987-2.923 1.482-4.384.096-.284.2-.565.3-.847.106-.3.128-.593-.126-.834-.268-.253-.237-.532-.082-.818.175-.325.338-.66.552-.958.313-.434.352-.88.193-1.373-.055-.17-.065-.355-.105-.586.125.011.225-.01.286.03.756.49 1.602.368 2.421.332.589-.026.934-.49 1.211-.94a9.02 9.02 0 0 0 1.126-2.81c.404-1.815.99-2.402 3.01-2.452 1.123-.029 2.205.16 3.112.908.305.251.639.236.975.095.231-.098.449-.229.729-.374.035.161.045.311.1.442.108.252.178.601.376.717.37.215.581.494.651.91.453-.023.809-.08 1.113-.388.42-.424 1.022-.373 1.55-.504.33-.081.68-.08 1.052-.12.046.055.139.116.153.193.09.473.375.6.838.62.378.017.767.167 1.117.33.18.083.373.31.408.5.164.91.587 1.704 1.103 2.438.507.722.534 1.485.416 2.398-.29-.042-.564-.036-.802-.125a6.619 6.619 0 0 0-2.843-.425c-.84.06-1.643-.074-2.407-.473a1.96 1.96 0 0 0-1.845-.02c-.127.825-.003 1.099.716 1.45.312.153.475.374.445.703-.075.824-.171 1.645-.264 2.467-.034.303-.226.44-.52.442-.62.002-1.239 0-1.885 0-.27-.84-.849-1.374-1.533-1.832-.804-.539-1.398-1.259-1.702-2.196-.084-.26-.192-.512-.291-.776-.615-.04-1.03.182-1.273.75a14.237 14.237 0 0 1-1.533 2.7c-.67.938-1.028 2-1.105 3.156-.018.272-.074.54-.126.908l2.11.398c-.14.571-.38.985-1.064.946-.218-.012-.443.085-.689.137.043.377.124.717.11 1.052-.028.596-.14.677-.756.71l.006.01zm11.121-58.764H38.51c-.086-.172-.154-.314-.228-.453-.374-.71-.781-.829-1.453-.414-.215.133-.418.286-.63.425-.19.125-.384.244-.663.42.096-.817.18-1.549.267-2.28.07-.593.168-1.184.21-1.779.06-.817-.473-1.458-1.28-1.592-.133-.022-.268-.035-.487-.064.061-.445.155-.864.17-1.285.031-.918.03-1.837.027-2.756-.001-.366-.039-.734-.07-1.1-.03-.333.13-.503.436-.604a7.607 7.607 0 0 0 1.025-.408c.493-.247.768-.655.743-1.224-.02-.412-.06-.823-.093-1.235-.045-.563-.393-.895-.9-1.006-.646-.143-1.311-.208-1.968-.305-.134-.02-.268-.034-.39-.049-.168-.715-.108-.912.444-1.204.308-.163.44-.392.418-.723-.028-.435-.073-.869-.095-1.304-.015-.294-.003-.59-.003-.921.67-.282 1.342-.366 1.993-.018.691.37 1.399.543 2.187.498.45-.026.92.036 1.361.138.604.14 1.005.557 1.183 1.15.488 1.624.723 1.305 1.9 1.352.713.028 1.373-.056 1.945-.534.206-.173.44-.206.694-.02.277.204.586.363.876.539-.096.883-.166 1.746-.288 2.603-.103.72-.517 1.26-1.099 1.691-.328.244-.616.543-.956.847.497 1.058.494 2.116.17 3.227l-.647.131-.666 4.41 4.322 1.293c-.348.846-.012 1.642.07 2.493l-.957.111-.434 1.726c-1.161-.041-1.771-.685-2.098-1.776z"/><path stroke="#88D9E7" stroke-linecap="round" stroke-linejoin="round" stroke-width=".5" d="M59.616 19.21c.523-.026.523-.026.75.57.916.146 1.088.007 1.343-1.08.584-.222 3.571-.421 4.175-.261-.772 1.547-.42 2.804 1.17 3.779-.993.26-1.196 1.05-1.524 1.738-.166.348-.19.708.05 1.047.039.056.064.122.094.184.14.288.393.618.16.898-.268.321-.686.427-1.131.349-.315-.055-.639-.061-.958-.09-.338-.03-.575.117-.735.409-.22.403-.439.807-.668 1.205-.176.306-.392.553-.78.617-.4.066-.536.426-.651.745-.328.91-.679 1.816-.912 2.752-.16.64-.483.97-1.108 1.018a10.74 10.74 0 0 1-1.38.03c-.376-.02-.627.124-.783.441-.212.43-.405.871-.617 1.334-.383.08-.716.047-1.078-.217-.62-.453-1.316-.612-2.081-.298-.182.075-.486.059-.643-.05-.689-.47-1.345-.342-2.015.008-.036.019-.09.003-.164.003l-.636-1.114c-.22-.385-.214-.79-.11-1.207.117-.469.251-.935.335-1.41.113-.633.154-1.258.05-1.916a2.29 2.29 0 0 1 .464-1.762c.404-.51.661-1.045.63-1.778.298-.014.565-.053.829-.034.716.05 1.176-.315 1.516-.89.223-.376.421-.767.645-1.143.332-.556.793-.946 1.435-1.111.623-.162 1.238-.356 1.863-.513a2.09 2.09 0 0 1 .675-.047c.913.079 1.422-.304 1.595-1.22.059-.315.124-.63.195-.986zm2.96 22.34l.213 1.202c.397.107.745.24 1.104.284.26.032.569.012.796-.103.93-.471 1.95-.495 2.94-.666.204-.035.406-.082.606-.136.707-.19 1.086-.655 1.142-1.384.033-.426.247-.847.05-1.277-.808-.308-1.502.051-2.284.475.165-.776.68-1.114 1.053-1.556.383-.456.744-.932 1.104-1.386l2.235.57-.067 1.182c.817.063 1.172-.461 1.532-.979.613.316 1.171.713 1.792.894.623.182 1.308.149 2.004.213.03.156.054.31.089.463.132.573.378 1.079.806 1.5.276.274.543.573.746.902.342.559.426 1.154.093 1.77-.23.425-.452.858-.637 1.305-.543 1.308-.07 2.14 1.026 2.97.197.148.522.144.791.173.27.028.442.135.457.414.035.616.233 1.23.022 1.849l-.435 1.287c-.307-.033-.58-.05-.849-.094-.685-.111-1.063-.62-1.382-1.157-.293-.492-.517-1.026-.786-1.57-.639-.118-1.182.19-1.809.456.116.273.23.517.324.768.203.545.063.844-.504.966-.443.095-.902.118-1.314.168-.087-.101-.133-.13-.144-.17-.216-.746-.651-1.198-1.484-1.168-.177.006-.357-.075-.566-.123l-.178-.65c-.333 0-.672-.017-1.008.004-.43.028-.81-.057-1.169-.317-.778-.563-1.587-1.025-2.614-.658-.228.081-.496.052-.81.08-.175-.345-.368-.682-.522-1.035-.172-.395-.202-.79.03-1.195.109-.19.123-.434.194-.705-.612-.05-1.161-.003-1.563.427-.433.464-.962.604-1.55.624-.33.011-.693-.015-.795.384-.095.375-.143.764.178 1.103.197.207.334.472.5.713-.99.586-1.82.4-2.915-.618.19-.6.562-1.202.272-1.908l.745-.318c-.02-.166-.055-.322-.053-.478.007-.47-.178-.802-.64-.947-.222-.07-.405-.203-.334-.44a.637.637 0 0 1 .353-.357c.461-.168.901-.356 1.227-.74.118-.139.27-.282.31-.448.14-.571.512-.708 1.035-.649.182.021.368.003.552.002.04.019.07.047.091.085zM50.558 80.67c-.24-.458-.685-.559-1.12-.536-.751.039-1.102-.387-1.296-1.004-.117-.37-.2-.762-.219-1.148-.023-.475-.08-.95-.365-1.314-.455-.583-.495-1.266-.604-1.939-.176-1.094-.39-2.177-.854-3.193-.057-.126-.088-.29-.186-.367-.558-.439-.497-1.047-.486-1.647.005-.271 0-.543 0-.91.833 0 1.585-.005 2.337.008.094.001.247.084.269.16.113.394.416.374.721.373h1.114c.05-.112.11-.19.12-.272.11-.88.677-1.386 1.426-1.73.649-.297.98-.103 1.084.604.01.067.036.13.065.234.145.02.299.046.453.064.157.019.316.03.507.047l.139.701c.47.15.954.084 1.428.047 1.725-.138 3.449-.19 5.169.046.263.035.565.12.757.289.927.813 2.086 1.158 3.176 1.644.125.056.248.114.427.196-.095.176-.162.339-.26.48-.782 1.125-1.754 2.078-2.75 3.007-.132.124-.297.22-.459.305-.825.435-1.75.518-2.669.834l-.11-1.377c-.483.102-.904.19-1.324.281-.27.06-.351.279-.402.51-.148.679-.536 1.074-1.24 1.216-.554.112-.695.356-.708.943-.011.552.003 1.049.448 1.527.286.31.28.89.406 1.348-.146.107-.229.192-.329.236-.532.232-.699.68-.79 1.21-.1.587-.232 1.173-.401 1.744-.132.447-.217.444-.655.383-.905-.127-1.523-.588-1.852-1.45a6.266 6.266 0 0 0-.49-.993c-.127-.21-.321-.378-.485-.565l.008.008zm-18.14-1.807c.118.506.513.757.935.94.506.22 1.036.382 1.559.561.55.19.614.285.52.854-.054.318-.157.635-.156.952 0 .382.062.77.144 1.144.051.237.239.393.504.4.75.02 1.165.46 1.563 1.06.83 1.252 1.514 2.58 2.162 3.927.103.214.094.491.1.74.008.3-.257.336-.465.43-.1.045-.221.122-.258.215-.3.758-1.015 1.05-1.63 1.43-.9.556-1.863.994-2.958 1.195-.248-.602-.507-1.19-1.39-1.03-.02.172-.035.368-.064.561-.046.318-.07.645-.166.948a.586.586 0 0 1-.365.337c-.85.183-1.713.314-2.564.495-.501.107-.892-.081-1.284-.344-.648-.436-1.289-.884-1.962-1.278-.321-.188-.484-.39-.447-.763.051-.526.1-1.054.121-1.582a9.267 9.267 0 0 0-.378-3.067c-.183-.607-.362-1.23-.18-1.896.246-.892.681-1.211 1.596-1.131.458.04.92.035 1.382.038 1.042.007 1.729-.523 2.155-1.444.408-.883.469-1.822.413-2.77-.01-.176-.146-.394-.291-.502-.694-.521-1.498-.804-2.345-.95-.42-.072-.82.052-1.188.273-.29.174-.586.34-.924.537-.193-.772-.207-1.432.287-2.02.073-.088.13-.21.223-.256 1.06-.521 1.636-1.42 1.987-2.53.444.078.777.302.874.756.088.41.274.733.624.953.257.162.237.36.119.593-.13.255-.251.516-.427.88.965.197 1.804.441 2.18 1.353l-.006-.009zM5.695 42.727l-.255.37c-.236.23-.485.302-.797.122a1.928 1.928 0 0 0-.584-.206c-1.573-.312-2.642-1.36-3.596-2.53-.694-.848-.603-1.259.24-1.982.175-.15.374-.27.548-.42.712-.612.793-1.223.277-2.007-.063-.096-.113-.206-.192-.287-.87-.894-.827-1.987-.709-3.142.36-.12.705-.238 1.052-.35.477-.155.712-.483.712-.982 0-.454.103-.938-.39-1.202.185-.605.48-.942 1.118-1.019.585-.07 1.162-.271 1.44-.921.095-.22.325-.385.508-.56.524-.498.928-.562 1.565-.25.206.101.417.203.6.34.75.56 1.607.703 2.493.566.548-.085 1.048-.003 1.55.156.439.139.864.32 1.3.468.26.09.527.212.793.217.607.012.986.32 1.267.814.122.216.263.421.454.726-.41 0-.728.024-1.04-.006-.528-.052-.817.21-.997.667-.399 1.01-.388 2.02-.027 3.036.07.195.152.386.212.585.186.624.088.864-.441 1.28-.131.103-.213.285-.284.445-.061.14-.074.3-.104.43-.51-.045-1.023-.221-1.438-.09-.39.125-.677.574-1.045.912-.038-.013-.128-.032-.205-.073-1.044-.566-2.087-.079-2.344 1.108-.107.494-.185.994-.274 1.491-.137.76-.544 1.353-1.114 1.855-.128.113-.197.291-.293.439zM50.444 62.33c-.174.013-.375.032-.577.04-.662.024-.744.095-.846.734-.017.109-.053.214-.095.375-.854-.196-1.68-.375-2.499-.586-.122-.031-.26-.2-.296-.332-.108-.396-.363-.482-.729-.462-1.045.058-2.07.16-2.912.886-.047.04-.126.044-.222.076-.197-.21-.383-.443-.602-.638-.556-.495-.655-1.106-.421-1.765.222-.628.481-1.248.784-1.84.277-.541.262-.985-.139-1.46-.458-.543-.862-1.132-1.292-1.705.063-.119.085-.225.15-.272.828-.613.694-1.497.645-2.343a.833.833 0 0 0-.591-.78c-.129-.044-.25-.109-.41-.179.176-.414.4-.716.838-.855.283-.089.547-.244.806-.394.508-.294.965-.641 1.105-1.305.214-.01.416-.018.617-.032.526-.036 1.053-.075 1.579-.115.46-.034.917-.08 1.347.17.156.092.35.116.517.192.473.215.859.164 1.236-.24.245-.263.58-.464.908-.621.257-.124.59-.238.847-.18.422.098.646-.054.867-.36.42-.584.418-.555 1.101-.283.727.29 1.474.526 2.21.787.216.077.428.16.662.248-.012.354-.24.509-.49.616-.374.158-.438.427-.361.787.05.233.064.474.11.84-.898-.384-1.707-.387-2.586-.265-.077.915-.083 1.778.319 2.634.509 1.084.654 2.219.02 3.31a3.326 3.326 0 0 1-.87.953c-.458.343-.976.61-1.482.884-.275.149-.438.334-.39.654.067.454.113.914.23 1.355.1.384.324.71.72.88.242.104.374.27.192.592z"/><path stroke="#88D9E7" stroke-linecap="round" stroke-linejoin="round" stroke-width=".5" d="M74.615 58.428c.66-.975.69-1.097.51-2.215-.549-.135-1.116-.109-1.679-.012-.326.055-.6.17-.653.592-.038.307-.273.518-.606.565-.221-.45-.221-.45-.086-1.149.163-.019.341-.038.518-.061.454-.06.749-.386.756-.834.013-.827-.638-1.453-1.466-1.38-.319.028-.634.111-.947.183-.328.074-.51.307-.585.619-.086.358-.159.72-.224 1.082-.14.779-.607 1.208-1.364 1.337-.48-.402-.301-.992-.43-1.479-.767 0-1.104.274-1.203.946-.03.204-.075.406-.111.61-.057.319-.285.511-.568.524-.72.033-1.327.356-1.946.663-.076.037-.171.036-.319.064.224-.995-.21-1.88-.278-2.81-.036-.478-.14-.953-.232-1.427-.09-.465-.237-.632-.694-.589-1.105.105-1.888-.448-2.607-1.17l-1.66-1.675c.401-.076.652.114.927.173.429.091.58.034.773-.368.14-.29.253-.595.34-.904.207-.726.198-.727.912-.78.133-.01.265-.04.426-.064.108-.554.173-1.049-.294-1.48-.169-.156-.24-.418-.414-.738.417-.081.72-.18 1.026-.191.512-.02.947-.187 1.307-.542.271-.268.574-.45 1.036-.483-.093.166-.192.285-.228.421-.064.238-.163.503-.114.727.094.424.255.839.438 1.234.201.436.53.591 1.019.496 1.005-.195 1.918-.025 2.744.598.479.362.995.57 1.611.336.14-.052.317-.007.518-.007l.21.616c.881.123 1.872.164 2.037 1.408.803.026 1.558.17 2.262-.256.504-.306.548-.403.353-.947-.068-.192-.162-.375-.282-.646l1.13-.484c.201.44.365.818.546 1.187.39.799.913 1.424 1.869 1.576.37.06.72.255.956.343 0 .556-.032.98.011 1.397.03.283-.097.443-.282.583-.313.235-.642.448-.963.672-.933.648-1.422 1.467-1.127 2.657.19.769-.2 1.369-1.144 1.884l-.076-1.027c-.328-.239-.621-.107-.897.07-.236.152-.46.301-.756.155zM24.764 33.116c.438-.197.75-.325 1.05-.476a3.55 3.55 0 0 0 .645-.395c.335-.273.47-.624.264-1.042-.192-.388-.395-.77-.627-1.22.253 0 .45-.013.644.004.182.017.36.087.541.1 1 .07 1.165-.133 1.354-.895.021-.087.06-.17.1-.278.39.18.54.498.639.864.16.596.168.576.73.604.502.024.91-.064 1.094-.607.05-.148.168-.272.254-.408l.162.08.188.709c.237.063.476.14.721.19.926.19 1.383.983 1.043 1.86-.15.386-.366.745-.533 1.125a9.39 9.39 0 0 0-.395 1.031c-.079.26-.099.54-.158.882h1.329c-.084.433-.177.78-.21 1.133-.018.184.004.474.118.55.654.44.794 1.14.879 1.807.173 1.366.107 2.724-.64 3.951a5.302 5.302 0 0 1-.564.78c-.89.995-1.812 1.962-2.691 2.966-1.143 1.306-2.602 1.744-4.275 1.667-.336-.015-.534-.159-.507-.505.04-.525.056-1.06.174-1.57.142-.617.653-.855 1.232-.954.158-.027.325-.007.48-.042.56-.126.78-.72.431-1.18-.352-.463-.867-.687-1.4-.839-.506-.144-1.031-.224-1.552-.307-.53-.084-.645-.124-.733-.638-.07-.4-.407-.39-.717-.613.097-.808.2-1.663.305-2.55l.475-.1a2.014 2.014 0 0 0 1.009-.554c.51-.494 1.054-.957 1.609-1.403.644-.518.773-1.003.428-1.754-.428-.932-1.213-1.417-2.134-1.735-.208-.072-.42-.132-.762-.238z"/><path fill="#F00" d="M62.576 41.55a.202.202 0 0 0-.09-.084c-.122-.062-.238-.142-.366-.182-.483-.15-.747-.493-.924-.949-.102-.261-.124-.474.065-.702.237-.287.286-.644.208-.985-.121-.534-.3-1.054-.465-1.617h-.917c-.197 0-.439.076-.58-.012-.264-.164-.582-.383-.675-.65-.174-.5-.524-.654-.964-.754-.443-.102-.883-.213-1.373-.33.075-.32.114-.593.202-.848.288-.829.591-1.035 1.47-1.035.254 0 .508.002.761 0 .866-.01 1.081-.188 1.314-1.01.195-.686.41-1.367.628-2.047.223-.696.531-1.29 1.281-1.615.307-.133.538-.56.695-.902.482-1.052.998-1.349 2.123-1.127 1.007.2 1.337-.098 1.22-1.115-.02-.18-.08-.359-.143-.53-.374-1.008-.029-2.056.981-2.391.064-.022.12-.07.177-.104.123-.65.053-.788-.473-1.128-.24-.155-.449-.36-.753-.61.464-.219.846-.252 1.218-.291.402-.043.88-.17 1.195-.007.284.147.388.638.577.974.125.221.263.433.388.654a.908.908 0 0 0 .638.468c.636.15.632.173.636.848.003.438.004.876-.002 1.315-.003.178.03.399-.222.44-.294.047-.334-.165-.353-.388-.005-.066-.037-.13-.055-.189-.757-.178-.941-.037-.896.694.01.158.048.318.1.468.235.693.48 1.383.752 2.159.233.097.759-.09.82.543-.52.118-1.06.082-1.59.004-1.336-.197-1.457-.15-2.027 1.062-.489 1.04-1.033 2.057-1.292 3.195-.113.496-.067.914.151 1.391.212.462.243 1.016.303 1.535.044.386.008.78.008 1.146.353.29.686.344 1.07.208.238-.084.493-.114.74-.168l-.01-.007c.3.599.206 1.138-.33 1.53-.65.475-.995 1.116-1.194 1.868-.04.153-.124.296-.193.442-.304.645-.752 1.006-1.525.902-.473-.064-.962-.012-1.474-.012l-.254.838-.581-.894"/><path d="M62.576 41.55a.202.202 0 0 0-.09-.084c-.122-.062-.238-.142-.366-.182-.483-.15-.747-.493-.924-.949-.102-.261-.124-.474.065-.702.237-.287.286-.644.208-.985-.121-.534-.3-1.054-.465-1.617h-.917c-.197 0-.439.076-.58-.012-.264-.164-.582-.383-.675-.65-.174-.5-.524-.654-.964-.754-.443-.102-.883-.213-1.373-.33.075-.32.114-.593.202-.848.288-.829.591-1.035 1.47-1.035.254 0 .508.002.761 0 .866-.01 1.081-.188 1.314-1.01.195-.686.41-1.367.628-2.047.223-.696.531-1.29 1.281-1.615.307-.133.538-.56.695-.902.482-1.052.998-1.349 2.123-1.127 1.007.2 1.337-.098 1.22-1.115-.02-.18-.08-.359-.143-.53-.374-1.008-.029-2.056.981-2.391.064-.022.12-.07.177-.104.123-.65.053-.788-.473-1.128-.24-.155-.449-.36-.753-.61.464-.219.846-.252 1.218-.291.402-.043.88-.17 1.195-.007.284.147.388.638.577.974.125.221.263.433.388.654a.908.908 0 0 0 .638.468c.636.15.632.173.636.848.003.438.004.876-.002 1.315-.003.178.03.399-.222.44-.294.047-.334-.165-.353-.388-.005-.066-.037-.13-.055-.189-.757-.178-.941-.037-.896.694.01.158.048.318.1.468.235.693.48 1.383.752 2.159.233.097.759-.09.82.543-.52.118-1.06.082-1.59.004-1.336-.197-1.457-.15-2.027 1.062-.489 1.04-1.033 2.057-1.292 3.195-.113.496-.067.914.151 1.391.212.462.243 1.016.303 1.535.044.386.008.78.008 1.146.353.29.686.344 1.07.208.238-.084.493-.114.74-.168l-.01-.007c.3.599.206 1.138-.33 1.53-.65.475-.995 1.116-1.194 1.868-.04.153-.124.296-.193.442-.304.645-.752 1.006-1.525.902-.473-.064-.962-.012-1.474-.012l-.254.838-.581-.894z"/><path stroke="#88D9E7" stroke-linecap="round" stroke-linejoin="round" stroke-width=".5" d="M34.052 35.119c-.477-.03-.862-.052-1.292-.078.006-.493.015-.979.374-1.293.524-.457.656-1.027.676-1.666.002-.067.028-.134.047-.217.413-.103.824-.236 1.246-.293.146-.02.333.13.474.239.893.69 1.557.677 2.377-.123.444-.432.835-.92 1.239-1.39.35-.41.522-.434.895-.1.193.175.275.47.636.46.365-.012.657-.147.963-.323 1.056-.61 1.894-1.444 2.639-2.401.361-.464.831-.844 1.27-1.28.348.3.39.681.347.98-.104.741-.096 1.51-.568 2.178-.352.497-.28.77.14 1.356-.336.387-.658.806-1.03 1.176-.668.664-1.17 1.415-1.393 2.341-.211.88-.684 1.603-1.34 2.215-.738.688-1.322 1.464-1.522 2.49a1.554 1.554 0 0 1-.721 1.05c-.365.234-.675.555-1.006.84-.657.568-1.163 1.22-1.402 2.087-.194.703-.652 1.27-1.22 1.725-.774.62-1.565 1.219-2.098 2.078-.144.233-.36.305-.595.225-.67-.227-1.333-.478-2.014-.725.097-.497.379-.797.658-1.096.707-.758 1.447-1.486 2.118-2.274.636-.748 1.097-1.581.963-2.642-.095-.752-.058-1.52-.171-2.268-.074-.489-.274-.97-.483-1.424-.185-.404-.403-.767-.217-1.238.062-.156.01-.357.01-.61zM49.98 16.016c-.378.13-.689.217-.981.345-.314.136-.673.25-.902.483-.432.44-.883.407-1.394.245-1.16-.37-2.325-.73-3.597-1.128-.08-1.253.457-2.483.55-3.79.144-.037.25-.08.359-.088.319-.022.425-.208.448-.502.032-.388.128-.774.127-1.16 0-.408-.065-.82-.138-1.222-.04-.218-.156-.422-.25-.666.342-.236.655-.466.983-.673.66-.418.973-.998.96-1.79-.01-.548.005-1.111.128-1.64.154-.668.306-.686.996-.59a9.268 9.268 0 0 0 3.49-.166c.92-.223 1.848-.398 2.798-.312.588.054 1.17.17 1.75.257.195.78-.082 1.34-.62 1.696-.628.417-.75.99-.646 1.621.095.569-.045 1.217.443 1.69.043.041.057.129.057.195.004.731.003 1.462.003 2.25-.227-.036-.38-.05-.527-.085a6.412 6.412 0 0 0-3.076-.005c-1.06.26-1.545.705-1.606 2.097-.032.713.229 1.44.377 2.157.05.244.16.475.267.781z"/><path stroke="#88D9E7" stroke-linecap="round" stroke-linejoin="round" stroke-width=".5" d="M33.591 24.556c.346 0 .642-.01.937.002.941.04 1.882.086 2.822.136.256.014.456-.063.573-.296.455-.908 1.225-1.403 2.166-1.685.197-.059.38-.165.571-.246.365-.156.57-.398.64-.819.219-1.294.24-1.295 1.548-1.254.135.005.269.028.453.048.202.965.922 1.435 1.733 1.83.642.313.925.871.951 1.57.007.162-.021.328.007.484.24 1.328-.466 2.186-1.424 2.93-.308.239-.596.507-.885.77-.1.092-.245.205-.255.317-.048.555-.485.742-.866.99-.426.274-.854.546-1.277.826-.465.308-.647.273-.944-.197-.025-.039-.032-.088-.056-.126-.024-.038-.058-.07-.106-.126-.574-.104-1.058.083-1.47.515-.491.515-.972 1.044-1.5 1.519-.425.383-.704.411-1.078.012-.513-.548-1.046-.57-1.681-.337-.162.06-.353.042-.566.063-.08-.255-.149-.47-.215-.686-.167-.543-.477-.795-1.039-.84-.138-.012-.278-.006-.413-.03a.46.46 0 0 1-.24-.12c-.254-.27-.126-1.237.19-1.45a1.56 1.56 0 0 1 .31-.151c.811-.31.854-.314.746-1.158-.079-.614-.107-1.176.235-1.73.111-.178.083-.443.133-.76zm21.303 37.147c-.707-.104-1.314-.222-1.926-.273-.533-.045-.768-.344-.883-.814-.053-.221-.126-.437-.193-.665-.798-.192-1.47-.038-2.133.674-.01-.495-.058-.855-.004-1.199.025-.162.22-.335.38-.434.431-.264.895-.474 1.328-.736.886-.537 1.263-1.37 1.309-2.374.042-.908-.098-1.77-.514-2.607-.282-.567-.41-1.214-.252-1.905.53-.108 1.04-.116 1.561.03.575.161 1.156.304 1.741.42.585.114 1.136-.088 1.69-.246.374-.107.753-.2 1.135-.27.342-.062.62.076.862.33a58.572 58.572 0 0 0 1.557 1.556c.264.255.561.474.838.716.221.193.234.408.108.68a33.51 33.51 0 0 0-.81 1.906c-.218.56-.61.934-1.164 1.1-1.097.326-1.831 1.125-2.57 1.915-.165.176-.224.447-.348.665-.18.318-.328.622-.816.605-.563-.02-.847.38-.896.926zm-5.451-20.807c-.285.295-.559.602-.86.879-.124.113-.304.22-.465.229-.48.03-.963.01-1.534.01v-1.912a20.092 20.092 0 0 1-2.823-1.592c-.5-.338-1.095-.278-1.663-.2-.28.903.156 1.463 1.351 1.708v.671c-1.097.17-2-.548-3.025-.522.106-1.15.66-2.024 1.416-2.798.816-.838 1.449-1.771 1.69-2.953.128-.623.59-1.085 1.008-1.546.247-.273.515-.528.78-.785.367-.355.496-.804.353-1.266a1.346 1.346 0 0 1 .088-1.067c.378-.714.383-1.5.512-2.262.01-.067.035-.131.078-.282l3.014.315c.027.124.08.273.087.424.063 1.318-.113 2.615-.335 3.91a6.645 6.645 0 0 0-.084 1.166.788.788 0 0 0 .186.494c.314.332.363.72.375 1.147.026.873.078 1.745.134 2.616.03.46-.122.85-.348 1.24a5.27 5.27 0 0 0-.4.94c-.203.592-.071 1.09.472 1.445l-.007-.01zm-.409-20.787c0-.644.003-1.17 0-1.695-.006-.693-.008-.692-.71-.803-.063-.01-.12-.052-.212-.095.1-.321.313-.493.61-.596.283-.097.56-.211.837-.321.456-.181.89-.367.923-.974.007-.12.247-.334.367-.325.993.072 1.88-.425 2.84-.499l.27-.02.105.956c.152.063.294.138.444.18.422.118.72.28.787.81.067.535.567.662 1.127.741l.454-1.017c.355-.145.652-.021.909.185.43.345.845.71 1.254 1.078.093.084.203.227.194.334-.063.73-.113 1.465-.25 2.183-.142.75-.432.955-1.162.818-.544-.102-.988.146-1.468.263-.601.146-1.19.342-1.78.535-.392.13-.723.036-1.027-.215-.301-.248-.64-.466-.89-.76-.536-.63-1.254-.72-1.995-.758-.502-.026-1.006-.005-1.627-.005z"/><path stroke="#88D9E7" stroke-linecap="round" stroke-linejoin="round" stroke-width=".5" d="M53.73 22.335c-.292.965-.845 1.718-1.593 2.315-.183.148-.513.14-.778.148-.22.008-.443-.066-.658-.103-.06.094-.132.154-.126.205.084.806-.451 1.38-.768 2.03-.055.114-.243.194-.384.226a1.69 1.69 0 0 1-.55.01c-.73-.075-1.469-.107-2.182-.26-.716-.153-.74-.282-.548-.958.273-.96.13-1.918-.064-2.868-.118-.575-.15-1.128.085-1.691.112-.268.117-.579.18-.92l.932-.118c.312-.786-.13-1.56-.009-2.344.46-.188.865-.094 1.35.146v2.233c.648.052 1.215.148 1.778.131.884-.026 1.615.212 2.22.89.315.353.732.615 1.115.928zm14.407 14.549c-.361-.323-.795-.302-1.214-.237-.322-.278-.304-.63-.303-.976.001-.667-.005-1.314-.34-1.946-.147-.278-.083-.741.033-1.068.268-.756.628-1.478.947-2.216a44.8 44.8 0 0 0 .477-1.148c.104-.26.279-.452.562-.429.515.042 1.026.129 1.612.206-.213.423-.4.736-.532 1.07-.244.615-.223.718.326 1.09.541.366.662.938.746 1.496.07.471.053.976-.037 1.445-.118.62-.217 1.182.558 1.535-1.09-.108-1.588.58-2.035 1.337l-.81-.166.01.007zm-41.92 46.843c0-.292-.012-.472.002-.65.081-1.03.187-2.06.244-3.092.02-.37.105-.593.486-.717.322-.104.62-.297.913-.476.362-.221.734-.278 1.12-.109.611.267 1.214.554 1.821.83.229.105.392.257.346.532-.112.656-.179 1.326-.36 1.962-.353 1.237-1.043 1.714-2.336 1.719-.711.003-1.422 0-2.236 0z"/><path stroke="#88D9E7" stroke-linecap="round" stroke-linejoin="round" stroke-width=".5" d="M71.678 37.07c-1.142.276-1.473.146-1.798-.683.4-.396.936-.306 1.424-.361.15-.59-.1-.898-.672-1.003.09-.67.163-1.303.275-1.93.022-.125.179-.268.308-.325.46-.206.934-.377 1.448-.58.085-.494.093-1.114.907-1.099.281.557.28 1.154.242 1.748-.008.135-.118.348-.223.377-.349.098-.43.37-.556.644-.134.29-.273.61-.497.823-.565.538-.682 1.23-.788 1.94-.023.155-.048.31-.07.45zm-.911 29.065l-1.953-2.533c.221-.112.363-.168.489-.249.286-.183.665-.317.826-.582.347-.566.76-.724 1.376-.544.213.063.46.007.688.025.576.047.67.19.552.747-.134.628-.253 1.26-.382 1.908-.323.084-.704.09-.953.274-.258.19-.387.556-.643.954zm-7.164-23.512c-.02-.186-.044-.322-.044-.457.001-.11.033-.22.064-.413.557-.008 1.102-.018 1.647-.024.207-.002.415-.005.621.009.308.021.506-.13.539-.413.095-.81.72-1.082 1.342-1.325.422-.164.881-.232 1.317-.342.305.75.029 1.665-.653 2.053-.353.2-.76.334-1.159.417-.47.098-.96.088-1.435.162-.335.052-.683.117-.983.264-.404.198-.785.199-1.256.07z"/></g></svg>