<svg xmlns="http://www.w3.org/2000/svg" xmlns:xlink="http://www.w3.org/1999/xlink" width="65" height="50" viewBox="0 0 65 50"><defs><path id="a" d="M.448.517h47.31v47.388H.447z"/></defs><g fill="none" fill-rule="evenodd"><g transform="translate(6.997 .02)"><mask id="b" fill="#fff"><use xlink:href="#a"/></mask><path fill="#E21924" d="M21.898 26.983h25.855S48.662-.337 23.77.537C4.787 1.204.406 18.481.45 23.835c.046 6.03 4.318 23.058 21.527 24.015 15.72.873 18.21-8.872 18.21-8.872l-6.37-7.347s-2.601 2.42-8.252 2.42c-5.651 0-7.624-6.004-7.624-10.843s2.242-9.409 7.266-9.409c5.022 0 5.56 5.108 5.56 5.108h-8.61s-1.7 3.92-.258 8.076" mask="url(#b)"/></g><path fill="#FEFEFE" d="M10.764 26.813C6.189 26.813 0 30.935 0 37.834c0 6.9 5.203 11.47 10.764 11.47 5.561 0 11.481-2.778 11.481-10.394l-7.894.089s-.627 2.51-2.78 2.51c-2.153 0-3.319-2.062-3.319-3.45 0-1.39.852-3.265 3.14-3.265 2.001 0 2.78 1.248 2.78 1.248h8.073s-1.435-9.229-11.481-9.229m36.821 22.222V37.252s-.27-10.439-11.033-10.439c-10.764 0-11.616 10.08-11.616 11.11 0 1.031.449 11.56 11.325 11.56l1.906-.18-.045-8.422s-.448.627-1.861.627-2.983-.761-2.983-3.36c0-2.599 2.692-3.047 2.983-3.047.291 0 3.072.359 3.072 2.957 0 2.599.134 10.977.134 10.977h8.118zm4.799 0h8.118V37.834s.358-2.598 2.063-2.598c1.704 0 1.704.493 1.704.493v-8.692s-.539-.224-2.512-.224c-1.973 0-9.373 1.344-9.373 8.781v13.441z"/></g></svg>