<svg xmlns="http://www.w3.org/2000/svg" xmlns:xlink="http://www.w3.org/1999/xlink" width="360" height="347" viewBox="0 0 360 347"><defs><path id="a" d="M.426 143.014h122.058V.025H.426z"/><path id="c" d="M.402 124.765h84.124V.312H.402z"/><path id="e" d="M.645 77.318h122.059V.04H.645v77.278z"/><path id="g" d="M91.315 77.318H0V.04h91.315v77.278z"/></defs><g fill="none" fill-rule="evenodd"><path fill="#F2F2F2" d="M163.06 155.304h-2.569c-7.401 0-13.402 6.001-13.402 13.403s6 13.403 13.402 13.403h2.57c7.402 0 13.402-6.001 13.402-13.403s-6-13.403-13.402-13.403"/><path fill="#F2F2F2" d="M151.282 152.415a7.002 7.002 0 0 0-8.45-5.404l-19.739 4.17-.118-1.785 7.5-.598a7.553 7.553 0 0 0 6.95-7.766c-.138-4.402-3.998-7.753-8.377-7.27l-13.207 1.454a28.23 28.23 0 0 0-3.622.648 7.509 7.509 0 0 0-1.084-4.464c-2.3-3.757-7.312-4.757-10.877-2.171l-10.757 7.803a28.14 28.14 0 0 0-9.91 13.13l-78.513 5.224 3.829 57.544 1.344-.09c1.65 6.546 7.998 10.936 14.837 9.984l2.544-.355c6.115-.85 10.674-5.706 11.431-11.546l15.58-1.036c-21.463 42.405-27.678 88.37-18.642 135.383h62.844c-10.136-38.443-6.41-74.983 11.193-108.991l-4.959-2.567 7.015-9.275-7.02-3.998 10.686-.401a38.16 38.16 0 0 0 31.96-19.661l6.568-11.875a5.874 5.874 0 0 0-10.327-5.596l-1.578 2.83a12.642 12.642 0 0 1-11.84 6.461l-.724-.046-1.792-26.942 21.935-4.547a7.003 7.003 0 0 0 5.32-8.247m189.361-9.635l-20.57-50.468-84.82 34.569-22.186-11.179-25.948 51.505 39.901 20.102 1.819 4.463 3.892-1.586 63.364 31.924 25.948-51.505-23.947-12.064zM126.298 40.133c2.357-4.914.283-10.81-4.632-13.166l-.89-.429 2.43-7.771L65.845.092l-44.13 45.011.635.622a13.321 13.321 0 0 0-6.935 4.628l-1.584 2.023c-4.563 5.828-3.537 14.253 2.292 18.815 5.828 4.563 14.251 3.537 18.814-2.291l1.584-2.024a13.348 13.348 0 0 0 2.416-4.89l39.733 38.957c3.043 2.983 7.448 3.717 11.168 2.234l.263 1.01c1.867 7.163 9.187 11.456 16.35 9.589 7.163-1.867 11.456-9.187 9.588-16.35l-.648-2.485c-1.07-4.11-3.94-7.265-7.54-8.865l7.06-7.202 8.034-8.193c4.032-4.114 3.967-10.717-.146-14.748l-2.773-2.72 5.715-11.918.557-1.162z"/><path fill="#F2F2F2" d="M252.729 220.82l-23.486-30.778a9.031 9.031 0 0 0-12.659-1.701l-1.385 1.057-59.448 45.361a9.056 9.056 0 0 0-1.58 1.56 9.01 9.01 0 0 0-.784 1.137 9.03 9.03 0 0 0 .663 9.962l1.224 1.604 6.594 8.643 12.292 16.108c-4.2 3.39-6.106 9.13-4.338 14.567l.795 2.444c2.289 7.039 9.85 10.89 16.89 8.6 7.039-2.29 10.89-9.85 8.6-16.89l-.794-2.443a13.411 13.411 0 0 0-1.41-2.983l13.686-10.443 42.054-32.089 1.384-1.056a9.032 9.032 0 0 0 1.702-12.66M63.21 102.775l-.794-2.443c-2.29-7.039-9.852-10.89-16.891-8.6-7.04 2.288-10.89 9.85-8.6 16.89l.028.088a13.434 13.434 0 0 0-3.963-.04l-2.545.355c-7.33 1.02-12.447 7.791-11.426 15.123 1.02 7.33 7.79 12.447 15.123 11.426l2.544-.354c7.326-1.02 12.439-7.781 11.428-15.107 2.101.377 4.323.259 6.496-.447 7.039-2.29 10.89-9.852 8.6-16.89"/><path fill="#F2F2F2" d="M327.924 274.003l-7.432 3.848-6.543-11.726-3.63 2.067c-7.173-14.19-8.816-34.91-8.776-40.679.028-.44.06-.88.067-1.319v-.002a28.167 28.167 0 0 0-11.625-23.24l-10.756-7.802c-3.566-2.586-8.578-1.585-10.878 2.172a7.515 7.515 0 0 0-1.099 4.265c.003.067.01.133.015.198a28.23 28.23 0 0 0-3.622-.647l-13.207-1.455a7.552 7.552 0 0 0-1.427 15.036l10.487.835a17.154 17.154 0 0 1 12.51 7.01 40.922 40.922 0 0 0-11.452-4.582l-23.903-5.05a7.003 7.003 0 1 0-3.13 13.652l25.335 5.25a12.646 12.646 0 0 1 9.116 8.048l.382 1.06a12.643 12.643 0 0 1-11.095 16.903l-4.317.273a12.642 12.642 0 0 1-11.841-6.46l-1.578-2.83a5.874 5.874 0 0 0-10.327 5.596l6.569 11.874a38.165 38.165 0 0 0 31.959 19.66l10.686.403-7.02 3.997 7.015 9.275-4.959 2.567c7.218 13.945 12.093 28.318 14.646 43.07h61.958c-2.932-24.54-10.306-48.428-22.128-71.267"/><path fill="#E6E6E6" d="M211.312 131.872l18.205 44.668 8.892 3.568 76.83-31.313-76.999-30.896-25.49 10.39z"/><path fill="#A2E009" d="M345.031 136.653l-113 46.055-21.767-53.406 113.001-46.055z"/><path fill="#89CC00" d="M232.03 182.708l91.235-99.462-113 46.056z"/><path fill="#3B9C0D" d="M330.461 122.936a12.865 12.865 0 0 0-5.423 12.885l-79.29 32.316a12.864 12.864 0 0 0-12.887-5.423l-8.026-19.696a12.864 12.864 0 0 0 5.423-12.886l79.29-32.315a12.865 12.865 0 0 0 12.886 5.424l8.027 19.695zM308.274 95.44l-78.767 32.102-11.9 4.85 4.85 11.9 7.814 19.172 4.85 11.9 11.9-4.85 78.767-32.102 11.9-4.85-4.85-11.9-7.814-19.173-4.85-11.9-11.9 4.85z"/><path fill="#3B9C0D" d="M297.892 124.726c-4.557-11.18-17.315-16.55-28.495-11.993-11.181 4.556-16.55 17.315-11.993 28.495 4.556 11.18 17.314 16.55 28.495 11.994 11.18-4.558 16.55-17.315 11.993-28.496"/><path fill="#FFF" d="M281.808 140.581l-2.314-5.678.005.001c1.432.32 2.431.998 2.987 2.362.578 1.419.369 2.54-.678 3.315m-9.638-13.64c-.45-1.1-.24-1.9.414-2.486l1.81 4.44c-.968-.292-1.747-.782-2.224-1.954m14.59 8.04c-.822-2.014-1.855-3.219-3.937-4.07-1.34-.544-3.714-1.07-5.536-1.424l-2.422-5.942c1.563.016 2.365 1.638 3.028 3.34l4.184-1.705c-.908-2.146-2.724-7.057-8.697-5.28l-1.193-2.927-2.274.926 1.192 2.926c-3.68 1.896-4.686 4.776-3.21 8.4.506 1.24 1.428 2.346 2.57 3.11 1.85 1.093 3.99 1.498 6.11 1.912l2.894 7.098c-1.336-.11-2.261-1.31-2.887-3.047l-.556-1.363-4.339 1.768.695 1.704c1.54 3.78 4.208 5.893 8.598 4.646l1.201 2.949 2.274-.927-1.19-2.917c3.587-1.842 5.15-5.115 3.494-9.176"/><path fill="#A2E009" d="M299.676 220.337L190.7 165.434l25.948-51.504 108.976 54.902z"/><path fill="#89CC00" d="M190.7 165.433l134.924 3.4-108.976-54.903z"/><path fill="#3B9C0D" d="M300.44 200.34a12.864 12.864 0 0 0-13.277 4.38l-76.466-38.523a12.866 12.866 0 0 0-4.381-13.277l9.569-18.994a12.865 12.865 0 0 0 13.277-4.38l76.465 38.524a12.865 12.865 0 0 0 4.382 13.276l-9.57 18.994zm6.143-34.794l-75.962-38.269-11.477-5.782-5.782 11.476-9.315 18.49-5.782 11.477 11.477 5.782 75.962 38.27 11.476 5.781 5.782-11.476 9.315-18.49 5.782-11.477-11.476-5.782z"/><path fill="#3B9C0D" d="M277.685 176.97c5.433-10.783 1.095-23.928-9.687-29.36-10.782-5.433-23.927-1.095-29.36 9.687-5.432 10.783-1.095 23.927 9.688 29.36 10.783 5.432 23.927 1.094 29.36-9.688"/><path fill="#FFF" d="M255.165 175.266l2.758-5.476.003.005c.7 1.29.846 2.488.183 3.802-.69 1.37-1.672 1.949-2.944 1.67m3.946-16.23c.535-1.061 1.275-1.429 2.147-1.321l-2.157 4.281c-.417-.92-.56-1.83.01-2.96m3.528 16.281c.979-1.943 1.208-3.514.481-5.642-.472-1.368-1.634-3.503-2.565-5.109l2.887-5.73c1.015 1.19.319 2.859-.528 4.478l4.036 2.032c1.02-2.095 3.528-6.691-1.737-10.025l1.423-2.823-2.193-1.105-1.422 2.822c-3.848-1.528-6.68-.394-8.44 3.101-.602 1.196-.83 2.617-.656 3.98.392 2.113 1.494 3.993 2.575 5.863l-3.449 6.845c-.794-1.08-.498-2.565.4-4.178l.662-1.315-4.184-2.108-.829 1.644c-1.835 3.644-1.676 7.043 2.15 9.532l-1.433 2.844 2.192 1.105 1.418-2.813c3.745 1.493 7.239.518 9.212-3.398"/><path fill="#A2E009" d="M128.526 202.903L6.583 198.427l2.116-57.633 121.942 4.477z"/><path fill="#89CC00" d="M6.583 198.427l124.059-53.156-121.944-4.477z"/><path fill="#3B9C0D" d="M120.884 184.409a12.864 12.864 0 0 0-10.242 9.516l-85.564-3.14a12.865 12.865 0 0 0-9.518-10.243l.78-21.253a12.865 12.865 0 0 0 10.243-9.517l85.565 3.141a12.863 12.863 0 0 0 9.516 10.242l-.78 21.254zm-8.92-34.187l-85-3.12-12.842-.471-.472 12.841-.76 20.69-.47 12.841 12.84.472 85.001 3.12 12.843.472.471-12.842.76-20.69.47-12.841-12.841-.472z"/><path fill="#3B9C0D" d="M90.459 172.65c.443-12.065-8.98-22.205-21.045-22.648-12.065-.443-22.205 8.979-22.648 21.045-.443 12.065 8.979 22.205 21.044 22.648 12.066.443 22.206-8.979 22.649-21.044"/><path fill="#FFF" d="M69.278 180.491l.225-6.128.005.004c1.173.88 1.805 1.908 1.75 3.38-.055 1.532-.707 2.468-1.98 2.744M66.1 164.095c.044-1.189.563-1.83 1.4-2.097l-.175 4.79c-.763-.663-1.272-1.43-1.225-2.693m9.993 13.327c.08-2.174-.367-3.698-1.914-5.328-.999-1.047-2.946-2.503-4.461-3.575l.235-6.413c1.419.659 1.482 2.466 1.388 4.29l4.515.167c.053-2.331.418-7.554-5.759-8.389l.117-3.16-2.454-.09-.116 3.157c-4.134.216-6.235 2.427-6.379 6.338-.048 1.338.336 2.725 1.063 3.891 1.238 1.758 3.022 3.007 4.785 4.256l-.281 7.66c-1.173-.65-1.522-2.124-1.38-3.965l.055-1.472-4.682-.171-.068 1.84c-.15 4.078 1.413 7.1 5.928 7.769l-.117 3.182 2.453.09.116-3.148c4.026-.204 6.796-2.547 6.956-6.929"/><path fill="#E6E6E6" d="M248.771 110.451l-.794-2.443c-2.29-7.04-9.851-10.89-16.89-8.6-7.04 2.288-10.89 9.85-8.601 16.89l.795 2.442c2.289 7.04 9.85 10.89 16.89 8.602 7.038-2.29 10.89-9.852 8.6-16.891"/><path fill="#0071BC" d="M224.778 188.34l-59.449 45.363a9.031 9.031 0 0 0-1.7 12.659l23.485 30.778c3.025 3.966 8.693 4.727 12.659 1.702l59.448-45.363a9.031 9.031 0 0 0 1.702-12.658l-23.486-30.779a9.03 9.03 0 0 0-12.659-1.701"/><path fill="#29ABE2" d="M223.393 189.397l-59.448 45.362a9.031 9.031 0 0 0-1.701 12.659l23.485 30.779c3.026 3.966 8.694 4.726 12.659 1.701l59.448-45.362a9.031 9.031 0 0 0 1.702-12.658l-23.486-30.78a9.031 9.031 0 0 0-12.659-1.7"/><path fill="#42BFEB" d="M230.816 187.762a9.01 9.01 0 0 0-7.422 1.635l-59.449 45.362a9.032 9.032 0 0 0-1.701 12.659l23.485 30.778a9 9 0 0 0 5.825 3.445l39.262-93.879z"/><path fill="#333" d="M170.7 258.501l73.809-56.319-7.233-9.48-73.81 56.32z"/><path fill="#FFF" d="M219.073 237.153l-38.43 29.325-5.354-7.016 38.43-29.325z"/><path fill="#0071BC" d="M250.308 222.151a8.5 8.5 0 1 1-13.516 10.313 8.5 8.5 0 0 1 13.516-10.313"/><path fill="#C1272D" d="M241.22 229.085a8.5 8.5 0 0 1-1.601 11.913 8.5 8.5 0 1 1-10.312-13.514 8.5 8.5 0 0 1 11.914 1.6"/><path fill="#912310" d="M129.871 26.967L74.05.093 30.108 45.287l73.975 35.465c4.914 2.357 10.809.283 13.166-4.632l17.255-35.986c2.356-4.916.282-10.81-4.633-13.167"/><path fill="#7F1C0E" d="M30.108 45.287l73.975 35.465c4.915 2.357 10.809.283 13.165-4.632l16.698-34.825L66.494 7.864 30.108 45.287z"/><path fill="#BA411F" d="M131.004 55.932L74.05.092l-44.13 45.01 56.954 55.84c4.114 4.033 10.717 3.968 14.75-.146l29.526-30.115c4.032-4.113 3.967-10.716-.146-14.749"/><path fill="#CE5029" d="M90.916 47.304c-3.81-3.735-9.926-3.675-13.66.135a9.659 9.659 0 0 0 .134 13.66l32.2 31.571 13.526-13.795-32.2-31.571z"/><path fill="#FF9F24" d="M88.725 58.685a6.404 6.404 0 1 1-9.145-8.968 6.404 6.404 0 0 1 9.145 8.968"/><path fill="#A2E009" d="M125.65 37.183l5.761-18.416L74.05.092l23.755 23.29 12.163 6.03z"/><path fill="#3B9C0D" d="M121.578 35.165l4.068-13.117L81.191 7.094l5.29 5.187 26.264 8.834c-.126 2.357.587 6.77 6.791 9.732l-.888 2.866 2.93 1.452z"/><path fill="#AD391E" d="M37.062 52.104l-7.142-7.001L74.05.093l7.141 7.001z"/><path fill="#F1BF89" d="M103.177 170.118c-.035-.473-.988-5.862-1.946-11.205a17.155 17.155 0 0 1 7.238-17.208l8.699-5.918a7.553 7.553 0 0 0 2.193-10.187c-2.298-3.757-7.311-4.757-10.876-2.171l-10.757 7.802a28.168 28.168 0 0 0-11.289 27.161l5.144 32.823 11.594-21.097z"/><path fill="#F1BF89" d="M103.177 170.118c-.035-.473-.988-5.862-1.946-11.205a17.155 17.155 0 0 1 7.238-17.208l8.699-5.918a7.553 7.553 0 0 0 2.193-10.187c-2.298-3.757-7.311-4.757-10.876-2.171l-10.757 7.802a28.168 28.168 0 0 0-11.289 27.161l5.144 32.823 11.594-21.097z"/><path fill="#D8A475" d="M120.46 129.866l-.157.003c-12.86.305-23.918 9.656-25.831 22.378-.048.325-.092.652-.13.98l-3.682 32.101.108.688 8.427-8.652 3.982-7.246c-.035-.472-.988-5.862-1.946-11.206a17.287 17.287 0 0 1-.254-3.735 17.156 17.156 0 0 1 7.492-13.473l8.699-5.917a7.54 7.54 0 0 0 3.293-5.921"/><path fill="#F1BF89" d="M109.553 165.901c.203-.427 2.042-5.582 3.856-10.699a17.152 17.152 0 0 1 14.806-11.369l10.488-.835a7.553 7.553 0 0 0 6.948-7.766c-.138-4.403-3.998-7.753-8.375-7.27l-13.209 1.454a28.168 28.168 0 0 0-23.253 18.012l-11.779 31.065 20.518-12.592z"/><path fill="#F1BF89" d="M156.172 174.906a5.875 5.875 0 0 0-7.984 2.2l-1.578 2.83a12.641 12.641 0 0 1-11.84 6.46l-4.318-.273a12.642 12.642 0 0 1-11.095-16.903l.382-1.06a12.643 12.643 0 0 1 9.117-8.047l25.333-5.25a7.003 7.003 0 1 0-3.13-13.652l-23.903 5.05a41.002 41.002 0 0 0-20.89 12.212l-6.757-6.431s-2.974 8.156-7.189 17.808l-6.217-15.38c.407 2.603-.82 27.543-9.345 43.225l25.178 23.465 5.696-6.458 12.355-.464a38.168 38.168 0 0 0 31.959-19.662l6.569-11.874a5.874 5.874 0 0 0-2.343-7.796"/><path fill="#E5AF7A" d="M96.467 216.063l-3.834-3.574 9.303 8.67 5.695-6.457s-6.988-.818-11.164 1.361"/><path fill="#CCC" d="M65.708 208.84l8.056-14.436 42.557 24.232-12.905 17.063z"/><path fill="#F2F2F2" d="M92.052 227.605l11.364 8.095 12.905-17.064-14.482-8.246z"/><g transform="translate(35.78 202.256)"><mask id="b" fill="#fff"><use xlink:href="#a"/></mask><path fill="#2E3D4C" d="M78.768 278.829c-1.327-1.35-32.771-33.596-55.29-82.938-30.915-67.74-30.732-135.47.53-195.866l54.476 28.198c-22.603 43.669-22.334 91.511.8 142.2 17.784 38.97 42.95 65.12 43.2 65.374L78.768 278.83z" mask="url(#b)"/></g><g transform="translate(73.738 220.505)"><mask id="d" fill="#fff"><use xlink:href="#c"/></mask><path fill="#40515E" d="M84.526 217.548c-.25-.254-25.416-26.404-43.201-65.374-23.133-50.688-23.402-98.53-.8-142.199L21.858.312c-31.263 60.397-26.99 124.813 3.925 192.553 9.698 21.248 21.048 39.322 30.937 53.127l27.807-28.444z" mask="url(#d)"/></g><path fill="#F1BF89" d="M290.792 235.83c.035-.473.988-5.862 1.946-11.206a17.155 17.155 0 0 0-7.238-17.208l-8.699-5.917a7.553 7.553 0 0 1-2.193-10.188c2.299-3.757 7.311-4.758 10.876-2.171l10.757 7.802a28.169 28.169 0 0 1 11.289 27.162l-5.144 32.822-11.594-21.097z"/><path fill="#F1BF89" d="M290.792 235.83c.035-.473.988-5.862 1.946-11.206a17.155 17.155 0 0 0-7.238-17.208l-8.699-5.917a7.553 7.553 0 0 1-2.193-10.188c2.299-3.757 7.311-4.758 10.876-2.171l10.757 7.802a28.169 28.169 0 0 1 11.289 27.162l-5.144 32.822-11.594-21.097z"/><path fill="#D8A475" d="M273.508 195.577l.158.004c12.86.304 23.918 9.656 25.83 22.377.05.325.093.652.13.98l3.683 32.101-.108.689-8.427-8.653-3.982-7.246c.035-.472.988-5.861 1.946-11.206a17.276 17.276 0 0 0 .254-3.735 17.156 17.156 0 0 0-7.492-13.473l-8.699-5.917a7.54 7.54 0 0 1-3.293-5.921"/><path fill="#F1BF89" d="M284.416 231.613c-.203-.428-2.043-5.582-3.856-10.7a17.152 17.152 0 0 0-14.806-11.368l-10.488-.836a7.554 7.554 0 0 1-6.949-7.766c.138-4.403 3.999-7.753 8.376-7.271l13.209 1.455a28.168 28.168 0 0 1 23.253 18.012l11.78 31.065-20.519-12.591z"/><path fill="#F1BF89" d="M237.797 240.617a5.875 5.875 0 0 1 7.984 2.2l1.578 2.831a12.64 12.64 0 0 0 11.84 6.46l4.319-.273a12.644 12.644 0 0 0 11.095-16.903l-.383-1.06a12.641 12.641 0 0 0-9.117-8.048l-25.333-5.25a7.003 7.003 0 1 1 3.13-13.652l23.903 5.05a41.002 41.002 0 0 1 20.89 12.212l6.757-6.431s2.974 8.156 7.19 17.808l6.216-15.379c-.407 2.601.82 27.541 9.345 43.224l-25.178 23.465-5.695-6.458-12.356-.464a38.168 38.168 0 0 1-31.959-19.662l-6.569-11.873a5.875 5.875 0 0 1 2.343-7.797"/><path fill="#E5AF7A" d="M297.502 281.774l3.834-3.574-9.303 8.67-5.696-6.457s6.99-.818 11.165 1.361"/><path fill="#F2F2F2" d="M328.26 274.551l-8.054-14.436-42.558 24.232 12.905 17.064z"/><path fill="#B3B3B3" d="M301.916 293.316l-11.363 8.095-12.905-17.064 15.92-9.064z"/><g transform="translate(235.06 267.952)"><mask id="f" fill="#fff"><use xlink:href="#e"/></mask><path fill="#2E3D4C" d="M44.361 278.844c1.328-1.35 32.771-33.596 55.29-82.938 30.916-67.74 30.733-135.47-.53-195.866L44.647 28.238c22.602 43.669 22.333 91.51-.8 142.2-17.785 38.97-42.951 65.12-43.2 65.374l43.715 43.032z" mask="url(#f)"/></g><g transform="translate(266.447 267.952)"><mask id="h" fill="#fff"><use xlink:href="#g"/></mask><path fill="#40515E" d="M46.205 193.28C75.217 129.71 76.84 66.15 51.095 8.651L67.733.04c31.262 60.396 31.445 128.125.53 195.866-22.519 49.341-53.963 81.588-55.29 82.938L0 266.074c11.266-13.349 30.818-39.08 46.205-72.795" mask="url(#h)"/></g><path fill="#FF9F24" d="M167.044 178.199c7.401 0 13.402-6 13.402-13.402 0-7.403-6-13.403-13.402-13.403h-2.57V178.2h2.57z"/><path fill="#FFDC00" d="M177.877 164.797c0 7.401-6 13.402-13.402 13.402-7.403 0-13.403-6-13.403-13.402 0-7.403 6-13.403 13.403-13.403 7.402 0 13.402 6 13.402 13.403"/><path fill="#FEEF00" d="M174.285 164.797c0 5.417-4.392 9.81-9.81 9.81-5.419 0-9.81-4.393-9.81-9.81 0-5.419 4.391-9.811 9.81-9.811 5.418 0 9.81 4.392 9.81 9.81"/><path fill="#FF9F25" d="M156.874 164.797c0-5.045 3.808-9.198 8.705-9.748a9.81 9.81 0 0 0-10.914 9.747 9.81 9.81 0 0 0 10.914 9.747c-4.897-.549-8.705-4.702-8.705-9.746"/><path fill="#FF9F24" d="M165.42 169.058v-2.828l.002.002c.555.385.864.849.864 1.528 0 .706-.285 1.149-.867 1.298m-1.742-7.502c0-.55.228-.854.61-.99v2.21c-.363-.292-.61-.637-.61-1.22m4.83 5.972c0-1.003-.23-1.698-.971-2.423-.479-.466-1.4-1.104-2.117-1.572v-2.959c.665.28.725 1.111.712 1.954h2.084c-.014-1.075.064-3.488-2.796-3.769v-1.457h-1.132v1.456c-1.901.17-2.832 1.224-2.832 3.03 0 .616.2 1.249.556 1.774.6.789 1.443 1.334 2.276 1.88v3.535c-.55-.28-.737-.953-.702-1.804v-.679h-2.16v.849c0 1.882.77 3.248 2.862 3.48v1.468h1.132v-1.452c1.852-.162 3.089-1.289 3.089-3.31M28.592 217.996c7.33-1.02 12.447-7.79 11.426-15.122-1.02-7.331-7.791-12.447-15.122-11.426l-2.545.354 3.696 26.549 2.545-.355z"/><path fill="#FFDC00" d="M37.473 203.228c1.02 7.332-4.095 14.102-11.426 15.123-7.332 1.02-14.102-4.095-15.122-11.426-1.022-7.331 4.095-14.102 11.426-15.123 7.331-1.02 14.102 4.095 15.122 11.426"/><path fill="#FEEF00" d="M33.915 203.724c.747 5.366-2.997 10.322-8.363 11.069-5.367.747-10.323-2.997-11.07-8.363-.747-5.367 2.998-10.323 8.364-11.07 5.366-.747 10.323 2.997 11.07 8.364"/><path fill="#FF9F25" d="M16.67 206.125c-.695-4.997 2.504-9.635 7.28-10.855-.366.01-.734.039-1.104.09-5.366.747-9.111 5.703-8.364 11.07.747 5.366 5.703 9.11 11.07 8.363.37-.051.731-.125 1.085-.215-4.926.132-9.27-3.457-9.966-8.453"/><path fill="#FF9F24" d="M25.722 209.167l-.39-2.8h.003c.603.306.973.722 1.066 1.395.098.7-.122 1.177-.679 1.405m-2.76-7.19c-.075-.544.11-.877.468-1.065l.305 2.19c-.4-.24-.692-.548-.773-1.126m5.609 5.25c-.14-.994-.464-1.65-1.298-2.266-.538-.395-1.538-.9-2.312-1.265l-.409-2.931c.698.185.871 1 .975 1.837l2.064-.287c-.164-1.063-.418-3.463-3.288-3.347l-.202-1.444-1.121.156.2 1.443c-1.86.43-2.636 1.603-2.387 3.39.085.612.371 1.211.795 1.682.703.699 1.614 1.123 2.515 1.548l.487 3.501c-.585-.2-.862-.842-.944-1.69l-.095-.672-2.14.298.118.84c.26 1.864 1.212 3.111 3.315 3.052l.203 1.455 1.121-.156-.2-1.439c1.812-.416 2.881-1.702 2.603-3.705m15.435-97.064c2.289 7.04 9.851 10.89 16.89 8.601 7.04-2.29 10.89-9.851 8.6-16.89l-.794-2.444-25.49 8.29.794 2.443z"/><path fill="#FFDC00" d="M60.102 116.32c-7.04 2.29-14.602-1.561-16.89-8.601-2.29-7.04 1.56-14.6 8.6-16.89 7.04-2.29 14.6 1.561 16.89 8.6 2.29 7.04-1.561 14.602-8.6 16.89"/><path fill="#FEEF00" d="M58.99 112.904c-5.152 1.675-10.687-1.144-12.363-6.296-1.675-5.152 1.143-10.688 6.295-12.364 5.153-1.675 10.689 1.144 12.365 6.296 1.675 5.153-1.144 10.688-6.296 12.364"/><path fill="#FF9F25" d="M53.606 96.346c4.797-1.56 9.925.777 11.961 5.265a9.795 9.795 0 0 0-.28-1.07c-1.676-5.153-7.211-7.972-12.364-6.296-5.153 1.676-7.971 7.211-6.296 12.363.116.355.252.699.402 1.031-.992-4.828 1.78-9.733 6.577-11.293"/><path fill="#FF9F24" d="M52.196 105.79l2.69-.874-.001.003c-.195.648-.54 1.084-1.186 1.294-.672.219-1.181.085-1.503-.422m6.596-3.977c.522-.17.882-.047 1.13.274l-2.102.684c.166-.436.418-.778.972-.958m-4.186 6.441c.954-.31 1.543-.745 2.004-1.674.295-.598.617-1.673.84-2.499l2.815-.915c-.06.719-.833 1.033-1.638 1.281l.643 1.982c1.019-.346 3.338-1.018 2.72-3.824l1.386-.451-.35-1.077-1.385.451c-.75-1.756-2.04-2.315-3.756-1.757a3.218 3.218 0 0 0-1.516 1.077c-.565.815-.823 1.785-1.085 2.747l-3.36 1.093c.094-.61.678-.996 1.497-1.225l.646-.21-.668-2.055-.807.262c-1.79.582-2.851 1.738-2.424 3.8l-1.396.453.35 1.077 1.381-.45c.727 1.711 2.18 2.539 4.103 1.914m173.062 7.642c2.289 7.04 9.851 10.89 16.89 8.6 7.04-2.289 10.89-9.85 8.6-16.89l-.793-2.442-25.491 8.29.794 2.442z"/><path fill="#FFDC00" d="M243.764 122.055c-7.04 2.289-14.6-1.562-16.89-8.601-2.29-7.04 1.56-14.6 8.6-16.89 7.04-2.29 14.6 1.561 16.89 8.6 2.29 7.04-1.56 14.602-8.6 16.89"/><path fill="#FEEF00" d="M242.653 118.639c-5.153 1.675-10.688-1.143-12.363-6.296-1.676-5.152 1.142-10.688 6.295-12.364 5.153-1.675 10.688 1.143 12.363 6.296 1.676 5.153-1.142 10.688-6.295 12.364"/><path fill="#FF9F25" d="M237.269 102.081c4.796-1.56 9.923.777 11.96 5.265a9.843 9.843 0 0 0-.281-1.07c-1.675-5.153-7.21-7.972-12.363-6.296-5.152 1.676-7.97 7.21-6.296 12.364.117.354.252.698.403 1.03-.992-4.828 1.78-9.733 6.577-11.293"/><path fill="#FF9F24" d="M235.859 111.526l2.69-.875c-.002 0-.002.002-.002.002-.195.648-.54 1.085-1.186 1.295-.672.219-1.18.085-1.502-.422m6.596-3.977c.521-.17.882-.047 1.129.274l-2.102.684c.166-.436.417-.778.973-.958m-4.187 6.441c.955-.31 1.544-.745 2.004-1.674.295-.6.617-1.673.84-2.5l2.814-.914c-.06.718-.832 1.032-1.637 1.281l.644 1.981c1.017-.346 3.337-1.017 2.719-3.823l1.387-.451-.35-1.077-1.386.451c-.749-1.757-2.04-2.315-3.756-1.758a3.22 3.22 0 0 0-1.516 1.078c-.565.814-.823 1.785-1.084 2.747l-3.362 1.093c.096-.61.679-.996 1.499-1.225l.646-.21-.669-2.056-.806.263c-1.79.582-2.852 1.738-2.425 3.799l-1.396.454.35 1.077 1.38-.45c.728 1.712 2.182 2.539 4.104 1.914M121.497 92.677c-1.867-7.163-9.187-11.455-16.35-9.589-7.162 1.868-11.455 9.188-9.588 16.35l.648 2.486 25.938-6.76-.648-2.487z"/><path fill="#FFDC00" d="M105.796 85.575c7.162-1.868 14.482 2.425 16.35 9.588 1.866 7.163-2.426 14.483-9.59 16.35-7.162 1.867-14.482-2.426-16.35-9.589-1.866-7.162 2.427-14.482 9.59-16.35"/><path fill="#FEEF00" d="M106.702 89.05c5.243-1.366 10.6 1.777 11.967 7.02 1.367 5.242-1.776 10.6-7.018 11.967-5.243 1.367-10.601-1.776-11.968-7.018-1.366-5.244 1.775-10.602 7.019-11.968"/><path fill="#FF9F25" d="M111.093 105.899c-4.881 1.272-9.86-1.365-11.627-5.965.052.36.123.723.217 1.084 1.367 5.244 6.725 8.386 11.968 7.019 5.242-1.367 8.385-6.725 7.018-11.968a9.953 9.953 0 0 0-.34-1.052c.704 4.877-2.355 9.61-7.236 10.882"/><path fill="#FF9F24" d="M113.061 96.555l-2.736.713.001-.002c.233-.635.604-1.05 1.26-1.222.685-.178 1.185-.015 1.475.51m-6.82 3.579c-.53.138-.883-.006-1.111-.34l2.138-.559c-.19.425-.462.752-1.027.899m4.561-6.181c-.97.253-1.585.652-2.1 1.552-.33.58-.714 1.633-.987 2.444l-2.864.747c.103-.714.894-.982 1.712-1.182l-.526-2.016c-1.036.285-3.391.817-2.941 3.656l-1.411.367.286 1.095 1.41-.367c.643 1.797 1.898 2.433 3.644 1.977a3.211 3.211 0 0 0 1.578-.985c.612-.78.927-1.734 1.245-2.678l3.42-.891c-.13.604-.736.953-1.567 1.134l-.658.172.545 2.09.821-.214c1.822-.475 2.95-1.565 2.646-3.648l1.421-.37-.285-1.096-1.406.367c-.624-1.751-2.027-2.665-3.983-2.154M40.114 65.865c4.563-5.828 3.536-14.252-2.292-18.815-5.828-4.563-14.252-3.536-18.815 2.291l-1.583 2.024L38.53 67.888l1.584-2.023z"/><path fill="#FFDC00" d="M36.238 49.073c5.829 4.563 6.855 12.987 2.292 18.815-4.563 5.828-12.986 6.855-18.815 2.292-5.828-4.563-6.854-12.987-2.291-18.815 4.563-5.829 12.986-6.854 18.814-2.292"/><path fill="#FEEF00" d="M34.024 51.902c4.267 3.34 5.018 9.505 1.678 13.772-3.34 4.266-9.507 5.017-13.773 1.677-4.266-3.34-5.017-9.505-1.677-13.772 3.34-4.266 9.506-5.017 13.772-1.677"/><path fill="#FF9F25" d="M23.291 65.611c-3.971-3.11-4.895-8.668-2.308-12.863-.256.261-.5.537-.731.831-3.34 4.266-2.589 10.433 1.677 13.772 4.267 3.34 10.433 2.589 13.772-1.677.231-.294.44-.599.632-.91-3.452 3.519-9.07 3.957-13.042.847"/><path fill="#FF9F24" d="M31.914 61.509l-2.226-1.743h.003c.646-.2 1.2-.158 1.736.261.556.435.73.932.487 1.482m-6.98-3.253c-.432-.338-.532-.705-.404-1.09l1.741 1.363c-.455.105-.878.087-1.337-.273m7.68-.122c-.79-.619-1.48-.864-2.507-.728-.661.09-1.732.422-2.542.698l-2.33-1.824c.629-.352 1.32.114 1.977.643l1.284-1.64c-.855-.651-2.707-2.2-4.69-.122l-1.149-.898-.697.89 1.147.899c-1.039 1.601-.783 2.985.638 4.097.487.38 1.109.612 1.74.656.992.015 1.942-.314 2.885-.633l2.783 2.179c-.56.262-1.205-.007-1.853-.559l-.535-.419-1.332 1.702.669.523c1.482 1.16 3.033 1.395 4.504-.11l1.157.906.698-.892-1.144-.895c1.014-1.558.89-3.227-.703-4.473m281.04 100.12c6.071-4.235 7.561-12.59 3.327-18.66-4.234-6.071-12.588-7.561-18.66-3.327l-2.107 1.47 15.333 21.986 2.107-1.47z"/><path fill="#FFDC00" d="M314.874 141.063c4.234 6.071 2.744 14.426-3.327 18.66-6.072 4.234-14.425 2.745-18.66-3.327-4.233-6.071-2.744-14.425 3.327-18.66 6.071-4.234 14.426-2.744 18.66 3.327"/><path fill="#FEEF00" d="M311.927 143.118c3.1 4.444 2.01 10.56-2.435 13.658-4.444 3.1-10.56 2.01-13.658-2.435-3.1-4.443-2.01-10.559 2.435-13.657 4.443-3.1 10.559-2.01 13.658 2.434"/><path fill="#FF9F25" d="M297.646 153.078c-2.885-4.138-2.138-9.723 1.565-12.975a9.71 9.71 0 0 0-.942.58c-4.444 3.1-5.535 9.215-2.435 13.658a9.81 9.81 0 0 0 14.528 1.751c-4.332 2.352-9.83 1.123-12.716-3.014"/><path fill="#FF9F24" d="M307.093 151.685l-1.618-2.32h.003c.677 0 1.194.203 1.583.76.404.58.425 1.105.032 1.56m-5.72-5.157c-.314-.45-.3-.83-.067-1.161l1.265 1.813c-.465-.033-.865-.174-1.198-.652m7.378 2.135c-.573-.823-1.16-1.26-2.183-1.431-.658-.109-1.78-.104-2.635-.079l-1.693-2.427c.705-.151 1.23.497 1.702 1.195l1.708-1.191c-.626-.874-1.942-2.898-4.448-1.492l-.834-1.196-.928.647.833 1.195c-1.463 1.227-1.623 2.625-.59 4.105.353.506.879.91 1.47 1.138.944.304 1.948.269 2.943.24l2.022 2.899c-.612.086-1.15-.36-1.608-1.078l-.388-.557-1.772 1.236.485.697c1.077 1.543 2.491 2.223 4.339 1.216l.84 1.205.929-.648-.831-1.192c1.426-1.192 1.796-2.823.64-4.482M175.694 287.116c2.29 7.04 9.852 10.89 16.89 8.6 7.04-2.288 10.89-9.85 8.601-16.889l-.794-2.443-25.49 8.29.793 2.442z"/><path fill="#FFDC00" d="M191.79 293.274c-7.04 2.29-14.601-1.562-16.89-8.6-2.29-7.04 1.561-14.602 8.6-16.892 7.04-2.289 14.601 1.563 16.89 8.602 2.29 7.039-1.56 14.6-8.6 16.89"/><path fill="#FEEF00" d="M190.68 289.858c-5.154 1.675-10.689-1.143-12.364-6.296-1.675-5.153 1.143-10.688 6.295-12.363 5.153-1.675 10.688 1.143 12.364 6.296 1.675 5.152-1.143 10.687-6.296 12.363"/><path fill="#FF9F25" d="M185.295 273.3c4.797-1.56 9.924.777 11.96 5.265a9.85 9.85 0 0 0-.28-1.07c-1.675-5.153-7.21-7.972-12.364-6.296-5.152 1.675-7.97 7.21-6.295 12.363.116.356.251.699.402 1.032-.992-4.828 1.78-9.733 6.577-11.293"/><path fill="#FF9F24" d="M183.885 282.745l2.69-.874-.002.002c-.194.647-.54 1.084-1.185 1.294-.672.218-1.182.085-1.503-.422m6.596-3.977c.521-.17.882-.047 1.13.274l-2.102.683c.165-.435.417-.776.972-.957m-4.186 6.44c.954-.31 1.543-.744 2.003-1.673.295-.598.617-1.673.84-2.5l2.815-.914c-.06.72-.833 1.032-1.638 1.281l.644 1.982c1.018-.347 3.337-1.018 2.72-3.824l1.386-.45-.35-1.077-1.386.45c-.749-1.756-2.04-2.315-3.755-1.757a3.217 3.217 0 0 0-1.517 1.077c-.565.815-.822 1.786-1.084 2.747l-3.361 1.093c.095-.61.678-.996 1.498-1.226l.646-.21-.669-2.055-.806.263c-1.79.582-2.852 1.738-2.425 3.799l-1.396.455.35 1.076 1.382-.45c.727 1.712 2.18 2.54 4.103 1.914M42.973 134.317c7.33-1.02 12.447-7.791 11.426-15.122-1.02-7.332-7.79-12.448-15.122-11.427l-2.545.355 3.696 26.548 2.545-.354z"/><path fill="#FFDC00" d="M51.855 119.549c1.02 7.33-4.095 14.102-11.426 15.122-7.332 1.02-14.102-4.095-15.124-11.426-1.02-7.33 4.095-14.102 11.427-15.122 7.331-1.021 14.102 4.095 15.123 11.426"/><path fill="#FEEF00" d="M48.297 120.044c.747 5.367-2.997 10.323-8.364 11.07-5.367.747-10.322-2.998-11.07-8.364-.747-5.367 2.998-10.323 8.364-11.07 5.367-.746 10.323 2.998 11.07 8.364"/><path fill="#FF9F25" d="M31.052 122.445c-.695-4.996 2.503-9.635 7.279-10.854-.365.01-.733.038-1.104.09-5.366.746-9.11 5.703-8.364 11.068.748 5.367 5.703 9.112 11.07 8.364a9.42 9.42 0 0 0 1.085-.215c-4.926.131-9.27-3.457-9.966-8.453"/><path fill="#FF9F24" d="M40.104 125.487l-.39-2.8h.002c.603.307.973.723 1.067 1.395.097.7-.124 1.177-.68 1.405m-2.76-7.19c-.075-.543.11-.877.469-1.065l.304 2.19c-.4-.24-.692-.547-.772-1.125m5.608 5.25c-.139-.994-.464-1.65-1.297-2.267-.538-.394-1.539-.9-2.313-1.265l-.408-2.93c.697.185.87 1 .974 1.836l2.064-.287c-.163-1.062-.417-3.463-3.289-3.347l-.2-1.444-1.122.156.201 1.443c-1.86.43-2.637 1.603-2.388 3.39a3.23 3.23 0 0 0 .795 1.682c.703.7 1.614 1.123 2.515 1.548l.488 3.501c-.585-.2-.863-.842-.945-1.689l-.094-.673-2.14.298.117.84c.26 1.864 1.213 3.112 3.316 3.053l.202 1.454 1.122-.156-.201-1.438c1.812-.417 2.882-1.703 2.603-3.706"/></g></svg>