<svg xmlns="http://www.w3.org/2000/svg" xmlns:xlink="http://www.w3.org/1999/xlink" width="155" height="46" viewBox="0 0 155 46"><defs><linearGradient id="b" x1="50%" x2="50%" y1="0%" y2="38.913%"><stop offset="0%" stop-color="#FBDA09"/><stop offset="100%" stop-color="#FFBC00"/></linearGradient><path id="a" d="M6.73 11.368c3.626-6.375 9.501-6.382 13.132 0l2.926 5.144c3.626 6.376.62 11.545-6.706 11.545H10.51c-7.33 0-10.336-5.162-6.705-11.545l2.925-5.144z"/><linearGradient id="c" x1="0%" x2="69.306%" y1="58.476%" y2="39.083%"><stop offset="0%" stop-color="#01E2FF"/><stop offset="100%" stop-color="#01C4FF"/></linearGradient><linearGradient id="e" x1="20.281%" x2="83.82%" y1="20.102%" y2="83.621%"><stop offset="0%" stop-color="#28D781"/><stop offset="100%" stop-color="#02F076"/></linearGradient><linearGradient id="f" x1="74.488%" x2="10.108%" y1="17.43%" y2="91.184%"><stop offset="0%" stop-color="#F2414E"/><stop offset="100%" stop-color="#E02554"/></linearGradient></defs><g fill="none" fill-rule="evenodd"><rect width="155" height="46" fill="#000" rx="5"/><g fill="#FFF"><path d="M82.552 15.295a3.771 3.771 0 1 1 0-7.543 3.771 3.771 0 0 1 0 7.543zm0-1.152a2.619 2.619 0 1 0 0-5.238 2.619 2.619 0 0 0 0 5.238zm-25.562-2.2v2.305h3.039v.838h-4.19V8.067h4.19v.838H56.99v2.2h2.724v.838H56.99zm7.124-3.038v6.18h-1.152v-6.18H61.18v-.838h4.714v.838h-1.78zm10.267 0v6.18h-1.152v-6.18h-1.781v-.838h4.714v.838H74.38zm-5.134-.839H70.4v7.02h-1.152zm18.701.001h-.681v7.019h1.152V9.607l3.352 5.479h1.153v-7.02H91.77v5.137l-3.14-5.136h-.681zm-36.428 3.16h3.155l-.03.999H51.52z"/><path d="M54.054 8.878c-.614-.648-1.512-1.02-2.58-1.02a3.7 3.7 0 0 0-3.703 3.697 3.702 3.702 0 0 0 3.702 3.698c2.079.019 3.813-1.446 3.466-3.989v-.037h-.922c.008.107.01.216.008.328.002 1.816-1.045 2.668-2.52 2.668a2.67 2.67 0 0 1-2.671-2.668 2.67 2.67 0 0 1 2.67-2.668c.739 0 1.378.252 1.828.712l.722-.721z"/></g><g fill="#FFF"><path d="M113.143 20.638h5.94s3.418.582 3.418 4.508-3.419 4.508-3.419 4.508h-5.94v-9.016zm1.152 2.18v4.84h4.032s1.835 0 1.835-2.42-1.835-2.42-1.835-2.42h-4.032z"/><path d="M112.619 20.638h2.095v14.667h-2.095zm11.105 0h2.095v14.667h-2.095zm9.861 13.618c-.577.476-1.5.924-2.957 1.015-3.339.209-3.34-2.837-3.34-3.043 0-.205-.165-2.69 2.49-3.085 1.881-.28 3.198.187 3.807.483v-.431c-.15-.571-.613-1.62-2.001-1.62-1.908 0-2.33 1.032-2.33 1.032l-1.745-1.032s.977-2.013 3.907-2.013c3.644 0 4.264 2.513 4.264 3.36V35.3h-2.095v-1.044zm-.15-3.141s-4.036-1.088-4.177 1.18c-.14 2.267 3.873 1.178 4.231-.43 0-.51-.054-.75-.054-.75zm6.177 3.633l-1.955 4.642h2.095l5.669-13.463h-2.095l-2.667 6.333-2.688-6.384h-2.095l3.736 8.872zm-31.684-5.443l-6.626 2.738s.428 1.515 2.42 1.525c1.56.008 2.44-1.383 2.44-1.383l1.682 1.139s-1.357 2.194-4.135 2.194c-3.415 0-4.919-2.986-4.919-4.925 0-1.868 1.194-5.031 4.707-5.031s4.431 3.743 4.431 3.743zm-2.52-.776s-.835-1.269-2.113-1.035c-2.705.495-2.365 2.862-2.365 2.862l4.477-1.827zm-9.76-7.891h2.217v14.636h-2.217zM92.1 25.88l2.05.018v9.234c0 2.36-1.405 4.85-4.712 4.85-3.308 0-4.376-2.93-4.376-2.93l1.882-.791s.574 1.806 2.591 1.806c2.297 0 2.566-2.09 2.566-2.805v-1.003s-.795 1.244-2.77 1.244c-2.14 0-4.683-1.833-4.683-4.96 0-3.126 2.395-4.915 4.708-4.98 1.854-.052 2.744 1.23 2.744 1.23v-.913zm-2.593 7.747c1.494 0 2.705-1.369 2.705-3.058 0-1.688-1.211-3.057-2.705-3.057-1.495 0-2.706 1.369-2.706 3.057 0 1.689 1.211 3.058 2.706 3.058zM78.74 35.514a4.982 4.982 0 0 1-4.988-4.976 4.982 4.982 0 0 1 4.988-4.976 4.982 4.982 0 0 1 4.987 4.976 4.982 4.982 0 0 1-4.987 4.976zm-.033-1.951c1.548 0 2.804-1.354 2.804-3.025 0-1.67-1.256-3.025-2.804-3.025-1.548 0-2.803 1.355-2.803 3.025s1.255 3.025 2.803 3.025zM67.95 35.514a4.982 4.982 0 0 1-4.988-4.976 4.982 4.982 0 0 1 4.987-4.976 4.982 4.982 0 0 1 4.988 4.976 4.982 4.982 0 0 1-4.988 4.976zm-.033-1.951c1.548 0 2.803-1.354 2.803-3.025 0-1.67-1.255-3.025-2.803-3.025-1.549 0-2.804 1.355-2.804 3.025s1.255 3.025 2.804 3.025zM55.071 27.14h6.585l-.065 2.081h-6.52z"/><path d="M60.36 22.242c-1.282-1.35-3.157-2.128-5.387-2.128-4.266 0-7.725 3.451-7.725 7.709 0 4.257 3.459 7.702 7.725 7.708 4.338.039 7.956-3.013 7.233-8.314v-.078h-1.924c.016.222.021.45.016.684.005 3.785-2.181 5.561-5.26 5.561a5.568 5.568 0 0 1-5.574-5.561 5.568 5.568 0 0 1 5.574-5.562c1.54 0 2.875.525 3.815 1.484l1.507-1.503z"/></g><g transform="translate(11.419 8.171)"><mask id="d" fill="#fff"><use xlink:href="#a"/></mask><use fill="url(#b)" transform="rotate(90 13.295 14.782)" xlink:href="#a"/><path fill="url(#c)" d="M0-.01l14.644 14.555-14.833 15.13z" mask="url(#d)"/><path fill="url(#e)" d="M-3.011-3.007L14.643 14.55l5.248-5.007z" mask="url(#d)"/><path fill="url(#f)" d="M14.645 14.546l8.035 8.099-24.004 8.1z" mask="url(#d)"/></g></g></svg>