<svg xmlns="http://www.w3.org/2000/svg" xmlns:xlink="http://www.w3.org/1999/xlink" width="212" height="212" viewBox="0 0 212 212"><defs><filter id="a" width="119.7%" height="119.7%" x="-8.4%" y="-7%" filterUnits="objectBoundingBox"><feOffset dx="1" dy="2" in="SourceAlpha" result="shadowOffsetOuter1"/><feGaussianBlur in="shadowOffsetOuter1" result="shadowBlurOuter1" stdDeviation="2"/><feColorMatrix in="shadowBlurOuter1" result="shadowMatrixOuter1" values="0 0 0 0 0 0 0 0 0 0 0 0 0 0 0 0 0 0 0.5 0"/><feMerge><feMergeNode in="shadowMatrixOuter1"/><feMergeNode in="SourceGraphic"/></feMerge></filter><rect id="b" width="70.9" height="70.9" rx="12"/><filter id="d" width="133.9%" height="133.9%" x="-11.7%" y="-11.7%" filterUnits="objectBoundingBox"><feOffset dx="2" dy="2" in="SourceAlpha" result="shadowOffsetOuter1"/><feGaussianBlur in="shadowOffsetOuter1" result="shadowBlurOuter1" stdDeviation="2"/><feColorMatrix in="shadowBlurOuter1" result="shadowMatrixOuter1" values="0 0 0 0 0 0 0 0 0 0 0 0 0 0 0 0 0 0 0.5 0"/><feMerge><feMergeNode in="shadowMatrixOuter1"/><feMergeNode in="SourceGraphic"/></feMerge></filter><circle id="e" cx="21.223" cy="21.223" r="21.223"/></defs><g fill="none" fill-rule="evenodd"><circle cx="106" cy="106" r="104" stroke="#24BDD9" stroke-dasharray="14,8,30" stroke-linecap="round" stroke-width="3"/><path d="M147.862 160.546a3.988 3.988 0 0 1 3.993-3.99h2.862c.549 0 1.204.39 1.463.872l3.958 7.353c.26.482.91.873 1.472.873h3.599c.553 0 .782-.387.504-.875l-5.105-8.983c2.89-1.148 4.824-3.865 4.824-7.066 0-4.993-2.409-8.18-7.927-8.18h-8.904a5.997 5.997 0 0 0-5.996 5.998v17.115c0 1.1.892 1.99 2.003 1.99h2.253a.997.997 0 0 0 1.001-1.008v-4.099zm0-15.75h8.64c3.054 0 3.768 1.844 3.768 3.879s-.707 3.845-3.864 3.845h-8.544v-7.724zm-13.297 17.439c.29-.716-.102-1.296-.866-1.296h-13.6c-.552 0-1-.454-1-.997v-1.048a3.995 3.995 0 0 1 3.995-3.994h5.01c.776 0 1.613-.59 1.873-1.324l.518-1.464c.258-.731-.153-1.324-.94-1.324h-9.465c-.548 0-.991-.455-.991-1.01V146a1 1 0 0 1 .998-1.01h11.794c.773 0 1.635-.58 1.925-1.296l.749-1.847c.29-.716-.109-1.296-.865-1.296h-13.8a6 6 0 0 0-6.001 6.01v12.807c0 3.32 2.696 6.01 6.002 6.01h11.994c.77 0 1.63-.58 1.92-1.296l.749-1.847zm-40.929 3.419H85.22a5.002 5.002 0 0 1-4.993-5v-15.38a4.99 4.99 0 0 1 4.993-4.999h8.066c5.794 0 8.848 2.289 8.85 6.21.005 5.648-2.785 5.193-2.785 5.648 0 .455 4.09.008 4.09 6.222 0 2.482-1.01 4.46-3.084 5.732-1.643 1.008-3.901 1.567-6.72 1.567zm-7.845-19.964v3.9a.996.996 0 0 0 .996 1.002h6.066c3.367 0 4.05-.59 4.05-2.944 0-2.332-1.283-2.96-3.957-2.96h-6.159a.996.996 0 0 0-.996 1.002zm1.004 15.589h6.675c3.268 0 4.678 0 4.678-3.33s-1.705-3.217-4.678-3.217h-4.4a3.273 3.273 0 0 0-3.28 3.273v2.28c0 .544.45.994 1.005.994zm-35.551-19.95a1 1 0 0 0-1.007-.993h-3.085c-.556 0-1.007.446-1.007 1.005v15.073c0 5.49 4.557 9.24 12.038 9.24s11.699-3.948 11.699-9.439v-15.072c0-.556-.453-1.006-1.008-1.006H65.79c-.557 0-1.008.447-1.008 1.006v15.072c0 3.123-2.586 5.005-6.599 5.005-4.012 0-6.939-1.882-6.939-5.005v-14.886z" fill="#2A2A2A"/><g filter="url(#a)" transform="translate(71.039 45)"><mask id="c" fill="#fff"><use xlink:href="#b"/></mask><use fill="#0B2D3A" xlink:href="#b"/><g stroke="#118A92" mask="url(#c)"><g transform="translate(-34.05 -33.584)"><rect width="56.09" height="40.68" x="7.554" y="83.36" stroke-width="1.3" rx="20.34" transform="rotate(45 35.599 103.7)"/><rect width="56.09" height="40.68" x="76.121" y="14.793" stroke-width="1.3" rx="20.34" transform="rotate(45 104.166 35.133)"/><rect width="56.09" height="40.68" x="7.088" y="15.259" stroke-width="1.3" rx="20.34" transform="rotate(-45 35.133 35.599)"/><rect width="56.09" height="40.68" x="74.722" y="84.293" stroke-width="1.3" rx="20.34" transform="rotate(-45 102.767 104.633)"/><path stroke-width=".9" d="M93.46 33.568H42.538c.244 5.974 2.77 11.67 7.25 16.015l18.258 17.713a1.586 1.586 0 0 0 2.22-.028l15.986-15.987a24.527 24.527 0 0 0 7.208-17.713zm-48.575 70.988h50.922c-.243-5.974-2.77-11.67-7.25-16.016L70.3 70.828a1.586 1.586 0 0 0-2.22.027L52.093 86.842a24.527 24.527 0 0 0-7.208 17.714zm59.951-11.193V42.441c-5.974.244-11.67 2.77-16.016 7.25L71.107 67.949a1.586 1.586 0 0 0 .028 2.22l15.987 15.986a24.527 24.527 0 0 0 17.714 7.208zM33.568 44.885v50.922c5.974-.243 11.67-2.77 16.015-7.25L67.296 70.3a1.586 1.586 0 0 0-.028-2.22L51.281 52.093a24.527 24.527 0 0 0-17.713-7.208z"/><path stroke-linecap="square" d="M69.267 33.817v70.433M34.284 69.267h70.433"/></g></g><g filter="url(#d)" mask="url(#c)"><g transform="translate(14.46 14.46)"><mask id="f" fill="#fff"><use xlink:href="#e"/></mask><use fill="#FFF" xlink:href="#e"/><rect width="12.128" height="12.128" x="14.926" y="14.926" fill="#0B2D3A" mask="url(#f)" rx="2"/><path stroke="#0B2D3A" stroke-linecap="square" stroke-width="5" d="M18.425 21.223H.233" mask="url(#f)"/></g></g></g></g></svg>