<svg xmlns="http://www.w3.org/2000/svg" width="30" height="30" viewBox="0 0 30 30"><g fill="none" fill-rule="evenodd"><circle cx="15" cy="15" r="15" fill="#7D3DAF"/><g fill="#FFF"><path d="M23.598 11.282l-.005-.02c-.434-1.752-2.386-3.631-4.18-4.022l-.02-.004a23.22 23.22 0 0 0-8.743 0l-.02.004c-1.793.39-3.746 2.27-4.18 4.021l-.005.021a17.114 17.114 0 0 0 0 7.372l.005.021c.416 1.677 2.223 3.47 3.95 3.963v1.954c0 .708.862 1.055 1.352.545l1.98-2.059a23.013 23.013 0 0 0 5.661-.377l.02-.004c1.794-.391 3.746-2.27 4.18-4.022l.005-.021a17.114 17.114 0 0 0 0-7.372zM22.031 18.3c-.29 1.142-1.772 2.563-2.95 2.825a21.64 21.64 0 0 1-4.65.376.11.11 0 0 0-.083.033l-1.446 1.485-1.538 1.578a.18.18 0 0 1-.31-.124v-3.238c0-.054-.038-.1-.09-.11h-.002c-1.178-.262-2.66-1.683-2.95-2.825a15.526 15.526 0 0 1 0-6.662c.29-1.142 1.772-2.563 2.95-2.825a21.622 21.622 0 0 1 8.118 0c1.18.262 2.662 1.683 2.95 2.825.483 2.21.483 4.452 0 6.662z"/><path d="M17.585 19.794c-.182-.055-.354-.092-.514-.158-1.662-.69-3.19-1.579-4.401-2.942-.689-.775-1.228-1.65-1.684-2.576-.215-.439-.398-.895-.583-1.349-.17-.413.08-.84.342-1.152a2.71 2.71 0 0 1 .907-.68c.268-.13.532-.055.728.172a9.377 9.377 0 0 1 1.125 1.576c.194.35.141.778-.21 1.016-.085.058-.163.126-.242.191a.801.801 0 0 0-.183.193.528.528 0 0 0-.035.464c.432 1.188 1.161 2.112 2.357 2.61.192.079.384.172.604.146.37-.043.489-.448.748-.66.252-.206.576-.21.848-.037.273.173.537.358.8.545.257.183.513.363.751.573.229.2.307.465.179.738-.236.5-.579.916-1.073 1.182-.14.075-.307.1-.464.148-.182-.055.157-.049 0 0zm-2.559-9.43c2.173.061 3.958 1.503 4.34 3.651.065.366.088.74.117 1.112.013.156-.076.305-.245.307-.173.002-.252-.144-.263-.3-.023-.31-.038-.62-.08-.926-.226-1.62-1.516-2.958-3.127-3.246-.243-.043-.491-.054-.737-.08-.155-.016-.358-.026-.392-.219-.03-.161.107-.29.261-.298.042-.003.084 0 .126 0 2.173.06-.042 0 0 0z"/><path d="M18.328 14.645c-.003.027-.005.09-.021.15-.058.219-.388.246-.465.026a.659.659 0 0 1-.026-.21c0-.46-.1-.92-.332-1.32a2.458 2.458 0 0 0-1.031-.967 2.968 2.968 0 0 0-.821-.252c-.124-.02-.25-.033-.374-.05-.15-.021-.231-.117-.224-.266a.232.232 0 0 1 .26-.23c.499.027.98.135 1.424.37.901.477 1.416 1.231 1.567 2.237.006.046.017.09.02.137.01.113.015.226.023.375-.003.027-.008-.15 0 0z"/><path d="M16.977 14.592c-.182.003-.28-.097-.298-.264-.013-.116-.023-.234-.051-.347a.977.977 0 0 0-.36-.565.943.943 0 0 0-.294-.142c-.133-.039-.272-.028-.405-.06-.144-.036-.224-.153-.201-.289a.261.261 0 0 1 .275-.21c.842.061 1.445.497 1.53 1.489.006.07.014.144-.002.21a.215.215 0 0 1-.194.178c-.182.003.083-.006 0 0z"/></g></g></svg>