<svg xmlns="http://www.w3.org/2000/svg" width="30" height="30" viewBox="0 0 30 30"><g fill="none" fill-rule="evenodd"><circle cx="15" cy="15" r="15" fill="#77BD6A"/><path fill="#FFF" d="M20.733 19.983a7 7 0 0 1-4.983 2.064 6.972 6.972 0 0 1-3.136-.735l-.633-.315-2.787.66.587-2.847-.312-.61a6.969 6.969 0 0 1-.766-3.2c0-1.882.733-3.652 2.064-4.983a7.06 7.06 0 0 1 4.983-2.064c1.882 0 3.652.733 4.983 2.064A7.001 7.001 0 0 1 22.797 15a7.06 7.06 0 0 1-2.064 4.983zM15.31 6.01c-4.793.229-8.574 4.22-8.56 9.018a8.96 8.96 0 0 0 .98 4.06l-.956 4.637a.35.35 0 0 0 .424.412l4.545-1.077a8.958 8.958 0 0 0 3.867.94c4.898.075 8.983-3.815 9.136-8.711A9 9 0 0 0 15.31 6.01zm4.808 10.942l-1.743-.5a.65.65 0 0 0-.643.169l-.427.434a.635.635 0 0 1-.69.146c-.825-.334-2.56-1.876-3.003-2.648a.635.635 0 0 1 .05-.704l.373-.481a.65.65 0 0 0 .08-.66l-.733-1.66a.65.65 0 0 0-1.016-.232c-.486.412-1.063 1.037-1.134 1.73-.123 1.221.4 2.761 2.381 4.61 2.289 2.136 4.121 2.418 5.315 2.129.676-.164 1.217-.821 1.558-1.36a.65.65 0 0 0-.368-.973"/></g></svg>